<mxfile host="www.draw.io" modified="2019-11-22T11:38:11.495Z" agent="Mozilla/5.0 (X11; Ubuntu; Linux x86_64; rv:70.0) Gecko/20100101 Firefox/70.0" etag="7qqzLVuaqVUYrDxw-u8U" version="12.2.9" type="github" pages="2">
  <diagram id="F6PybKgeasRFrLHUZi7e" name="Page-1">
    <mxGraphModel dx="1355" dy="776" grid="1" gridSize="10" guides="1" tooltips="1" connect="1" arrows="1" fold="1" page="1" pageScale="1" pageWidth="291" pageHeight="413" math="0" shadow="0">
      <root>
        <mxCell id="0"/>
        <mxCell id="1" parent="0"/>
        <mxCell id="9R28veF4jQtSNhzYcZ0L-36" value="&lt;div style=&quot;font-size: 10px&quot;&gt;&lt;font style=&quot;font-size: 10px&quot;&gt;NodeMCU 1.0 (ESP-12E Module)&lt;/font&gt;&lt;/div&gt;&lt;hr style=&quot;font-size: 10px&quot;&gt;" style="shape=rect;html=1;overflow=fill;whiteSpace=wrap;" parent="1" vertex="1">
          <mxGeometry y="80" width="260" height="340" as="geometry"/>
        </mxCell>
        <mxCell id="9R28veF4jQtSNhzYcZ0L-16" style="edgeStyle=orthogonalEdgeStyle;rounded=0;orthogonalLoop=1;jettySize=auto;html=1;exitX=0.5;exitY=1;exitDx=0;exitDy=0;entryX=0.5;entryY=0;entryDx=0;entryDy=0;" parent="1" source="9R28veF4jQtSNhzYcZ0L-14" target="9R28veF4jQtSNhzYcZ0L-15" edge="1">
          <mxGeometry relative="1" as="geometry"/>
        </mxCell>
        <mxCell id="9R28veF4jQtSNhzYcZ0L-14" value="&lt;div style=&quot;font-size: 10px&quot;&gt;&lt;font style=&quot;font-size: 10px&quot;&gt;Início&lt;/font&gt;&lt;/div&gt;" style="ellipse;whiteSpace=wrap;html=1;" parent="1" vertex="1">
          <mxGeometry x="80.5" y="120" width="70" height="30" as="geometry"/>
        </mxCell>
        <mxCell id="9R28veF4jQtSNhzYcZ0L-27" style="edgeStyle=orthogonalEdgeStyle;rounded=0;orthogonalLoop=1;jettySize=auto;html=1;exitX=0.5;exitY=1;exitDx=0;exitDy=0;" parent="1" source="9R28veF4jQtSNhzYcZ0L-15" target="9R28veF4jQtSNhzYcZ0L-26" edge="1">
          <mxGeometry relative="1" as="geometry"/>
        </mxCell>
        <mxCell id="9R28veF4jQtSNhzYcZ0L-15" value="&lt;div style=&quot;font-size: 10px&quot; align=&quot;center&quot;&gt;&lt;font style=&quot;font-size: 10px&quot;&gt;Realiza Medição&lt;/font&gt;&lt;font style=&quot;font-size: 10px&quot;&gt;&lt;br&gt;&lt;/font&gt;&lt;/div&gt;" style="shape=process;whiteSpace=wrap;html=1;backgroundOutline=1;align=center;" parent="1" vertex="1">
          <mxGeometry x="85.5" y="170" width="60" height="30" as="geometry"/>
        </mxCell>
        <mxCell id="9R28veF4jQtSNhzYcZ0L-20" style="edgeStyle=orthogonalEdgeStyle;rounded=0;orthogonalLoop=1;jettySize=auto;html=1;exitX=0.5;exitY=1;exitDx=0;exitDy=0;entryX=0.5;entryY=0;entryDx=0;entryDy=0;" parent="1" source="9R28veF4jQtSNhzYcZ0L-17" target="9R28veF4jQtSNhzYcZ0L-19" edge="1">
          <mxGeometry relative="1" as="geometry"/>
        </mxCell>
        <mxCell id="9R28veF4jQtSNhzYcZ0L-17" value="&lt;font style=&quot;font-size: 10px&quot;&gt;Mostra no display&lt;br&gt;&lt;/font&gt;" style="shape=process;whiteSpace=wrap;html=1;backgroundOutline=1;align=center;" parent="1" vertex="1">
          <mxGeometry x="73" y="270" width="88" height="30" as="geometry"/>
        </mxCell>
        <mxCell id="9R28veF4jQtSNhzYcZ0L-31" style="edgeStyle=orthogonalEdgeStyle;rounded=0;orthogonalLoop=1;jettySize=auto;html=1;exitX=0.5;exitY=1;exitDx=0;exitDy=0;entryX=0.5;entryY=0;entryDx=0;entryDy=0;" parent="1" source="9R28veF4jQtSNhzYcZ0L-19" target="9R28veF4jQtSNhzYcZ0L-30" edge="1">
          <mxGeometry relative="1" as="geometry"/>
        </mxCell>
        <mxCell id="9R28veF4jQtSNhzYcZ0L-63" style="edgeStyle=orthogonalEdgeStyle;rounded=0;orthogonalLoop=1;jettySize=auto;html=1;exitX=1;exitY=0.5;exitDx=0;exitDy=0;entryX=-0.098;entryY=0.478;entryDx=0;entryDy=0;entryPerimeter=0;" parent="1" source="9R28veF4jQtSNhzYcZ0L-19" target="9R28veF4jQtSNhzYcZ0L-61" edge="1">
          <mxGeometry relative="1" as="geometry"/>
        </mxCell>
        <mxCell id="9R28veF4jQtSNhzYcZ0L-19" value="&lt;font style=&quot;font-size: 10px&quot;&gt;Envia o dado por UDP&lt;br&gt;&lt;/font&gt;" style="shape=process;whiteSpace=wrap;html=1;backgroundOutline=1;align=center;" parent="1" vertex="1">
          <mxGeometry x="70.5" y="320" width="93" height="30" as="geometry"/>
        </mxCell>
        <mxCell id="9R28veF4jQtSNhzYcZ0L-28" style="edgeStyle=orthogonalEdgeStyle;rounded=0;orthogonalLoop=1;jettySize=auto;html=1;exitX=0.5;exitY=1;exitDx=0;exitDy=0;entryX=0.5;entryY=0;entryDx=0;entryDy=0;" parent="1" source="9R28veF4jQtSNhzYcZ0L-26" target="9R28veF4jQtSNhzYcZ0L-17" edge="1">
          <mxGeometry relative="1" as="geometry"/>
        </mxCell>
        <mxCell id="9R28veF4jQtSNhzYcZ0L-26" value="&lt;font style=&quot;font-size: 10px&quot;&gt;Transforma tensão para dB&lt;br&gt;&lt;/font&gt;" style="shape=process;whiteSpace=wrap;html=1;backgroundOutline=1;align=center;" parent="1" vertex="1">
          <mxGeometry x="66" y="220" width="99" height="30" as="geometry"/>
        </mxCell>
        <mxCell id="9R28veF4jQtSNhzYcZ0L-32" style="edgeStyle=orthogonalEdgeStyle;rounded=0;orthogonalLoop=1;jettySize=auto;html=1;exitX=0;exitY=0.5;exitDx=0;exitDy=0;entryX=0;entryY=0.5;entryDx=0;entryDy=0;" parent="1" source="9R28veF4jQtSNhzYcZ0L-30" target="9R28veF4jQtSNhzYcZ0L-15" edge="1">
          <mxGeometry relative="1" as="geometry">
            <mxPoint x="30.5" y="180" as="targetPoint"/>
            <Array as="points">
              <mxPoint x="40.5" y="384"/>
              <mxPoint x="40.5" y="185"/>
            </Array>
          </mxGeometry>
        </mxCell>
        <mxCell id="9R28veF4jQtSNhzYcZ0L-30" value="&lt;font style=&quot;font-size: 10px&quot;&gt;Espera 1s&lt;/font&gt;" style="shape=process;whiteSpace=wrap;html=1;backgroundOutline=1;" parent="1" vertex="1">
          <mxGeometry x="70.5" y="370" width="93" height="27" as="geometry"/>
        </mxCell>
        <mxCell id="9R28veF4jQtSNhzYcZ0L-61" value="" style="shape=image;verticalLabelPosition=bottom;labelBackgroundColor=#ffffff;verticalAlign=top;aspect=fixed;imageAspect=0;image=data:image/png,iVBORw0KGgoAAAANSUhEUgAAAMgAAADICAYAAACtWK6eAAAAAXNSR0IArs4c6QAAAARnQU1BAACxjwv8YQUAAAAJcEhZcwAACxIAAAsSAdLdfvwAABv7SURBVHhe7Z3bjxzVncfzD+zrPu3TPuzDPuQhysMqUrRSpGi1WkURq1XEKkqUiIisNlEWJZsVsBBYbgkGczXBXA2BBS9gnJiruQQbG2zjAAbjy1w8Y894POOxx+MZ22N7fKntT9V0aBff7qquU6cu3b+f9BHWj+lT1dV1qs75Xb/0pav3BIZhtEEqDcOIkErDMCKk0jCMCKk0DCNCKg3DiJBKwzAipNIwjAipNAwjQioNw4iQSsMwIqTSMIwIqTQMI0IqDcOIkErDMCKk0jCMCKk0DCNCKo3c+Zvr9wbfuXMo+OWjo8Gy1WPBY69MBGs2TAXrtx0J3v14Jti++3jwyeBcsGvkRLBn9ESwd3/EntH5UMf/4282Nv729a1Hws8yBmP95yOjwb/cMRT89XV75bENB6TSyMxXbxwIrnpoJPjt7w8Gr7w/HXy093gwOnEqmDl+Nlg4cz64cOFikLcw5sLpc+ExRhrH+tOe48HL700HD6w9GPxs5UjwlRts4mRGKo3UXLliX7By3UTwzoczwdDYyeD4icXg/PkLS7du+XKucS6z82eDwca5vb39aDhpfnjfsPwuhkAqjbb8611D4YR479NjwaEjp4PFc9WZDGllcfFCcPDwQrD5k2PhhPnnxvJMfVejgVQal8C+Yd3m6WDfwZPBmcbN1WtyqrE84w2zduPh4D8ay0N1DfoWqTSCXzwyEry25Uj4pPWxb6iqsDw8MHkqfCD85MF98tr0FVLZp1y2bCh49s3JcKN7/kLvvSm6FZaPvFmeeO1Q8I+/HpTXrOeRyj7j5qcPhJafkwvnlm4Nk7jMn1oM3m/su65dNSqvYc8ilX3A3/5qb+hHwARrkl5Ybg4eOBGasf/yWn1tewqp7GG+cctA8MI7U8HhmTNLP7lJVpmYPh08vX6yt/0sUtmDMDHWbTocHJs7u/TzmuQlPGyefWsy+HLjrayufa2Ryh6CpdRzf5yyiVGAMFF+9/oh+TvUFqnsER59eSKYmjm99POZFCWYie9+YVz+JrVDKmvOdU/sDzeSJuXKzuH5+vtSpLKmYKsn2pX4I5NqCJEHr245Ei511W9WeaSyhqxcdzCMZjWpphC3dvvqMfnbVRqprBHkQRBSblIP2bRjJvjaTQPyt6wkUlkTiEQllNukXoLhhOgF9ZtWDqmsONjbCdU2qa8Q68beRP2+lUIqK8zPHx4JI2xNekMGDpwIvnt3hRO4pLKiEDtF2qpJbwlZmHf8X0U38FJZQf74p6NLl7P+QsDf6cZEx7s/Mb0QJmJ9tm8++HDP8WDLzmONjeyx0FwN/Hvrztnw//E3/C0xUHwWE2qv5KrwPdZsOCx/+1KRygrxzVsHw8oedRR+9Nn5xfCm5sYnSPK+F8fDKiSkuVLgQX3nNPBZLHhkO97fGJOba+tns2Euy1zjiVzXibOt8R3+6r8r5DORyorwo/v3hfbzuggJRjzdyZsgyYisxL/7n+JNmphRr358NIy03bZrNphsXMNzNcqdp/jFt35TkQQtqawAN/xufzB3cnHpklVXWD9Ts4qb8ccrqhtW8dMHR8JsSZZpJ05VPzGMwMdKXE+pLBkC3apcHIFJwZP53jXjwd/f7P6GYEnx9cY43759MLh8+VDw/XuGw9I8VzTeoPybSiosyVhu5hFSTkgOCU84WKs8WVieMrHVdygMqSwRQkaqGEt1dvF8uBd65KWJMLdEnXsnuPGvf3J/aImjqBsbb8Ybn1oIpo+dCScdKb88GDgWy7UmZ86eDyuP8EY9evxsuOxkGcLG/a3tR4P/fWMyuO2ZA8EP7h3uuroiS5knXz8UBndW8brzfXkwqHMvBKksCdbtFy9Wa3OJp56bsJvXPSVGMVu+tHk6+HRoLlwuFGGeZmIdnT0Tli6lpClvuG58DPiYKINatbfK9t2z8nwLQSpL4Kn1h5YuRzWEje0zjTV7miXUP9w2GCx/bjysXEiOO0/7qgjm5LHJhWDDhzPBnY1Jm+btx1uFGllMtioIFjkmrzpX70hlwfDmqIqwfFn16qHEpQpvCZYmO4fnwoofdRGWaTsG54KHGktZJrb6bk0wJZNKe6SxBCxbeLOpc/SOVBYIe44q2Oy5CbBEdbLBs5F+uLEHodo6xaLrLkwW/A63NvYv6vs2oSgDfhb8K2XJ1NHTwV9co8/PK1JZECxLyrbPsxxir9DJX8HrneLUvZzXPn54Iczd71QgDisbEQ3U9i1aMF7gGFXn5RWpLAC8yWWbcj8emAtNqer8AHMzG95+qrKINQ2jBBYxdU2ABwa9S4oUfoNS9iFS6Rls+WXWpWLzuWLtQXluwDKKwgP9LLxZN340E/ph1DUC9mDzBTlz+2qCrH338NLXLl4IA2lnyaGtwdiUhdK3ChOFjlbtNvT4dzBl+xZWG6W0aZBKj9CKrIy1PBtMMhDVOZHdNjx+cukvTZTwm2HEUNcPMIljUvYlmN37YpO+/Pmxpa9cnJCUQ7hG/Fy+d/dw6ISqmnOyykJk8jWP6wLWLIF8JbMR+q+O6R2p9MgbHxxZ+srFCBtOdR6r356sRdBeFYXwF5ZdyiTO/pKHTp7C/qO0mCyp9Ag3bBFC/BJxU/Hj//tv91lRuZyEODLC6uPXGMh9ycu/xb5RHaMQpNIjRbxBjs2fDasrxo/NGrpKYSC9IMR/4T+JX2sgOcz1emPtzCNiOjNS6RHfbxBSWNlbtB6TBCIa5Jj4E0LnVb0rMh6zGmUoBEjSXHzMQpFKj+C19iVsIOOh0TSlnDxqvUCKEB5Oaq/AA4tWbt0Iy+BKVDuRSo9g6fARezWw/8QXcrzJ1T5lbdUKFa43UcOtv0MTlrhJKdSkLFeqhYJUemb/oXy91ISD4F9pPQbr4roWLqi7EF/X6SYncWzNhqmw1/z23ceD9z6JClqofWPpSKVn8vSF4OOITw6ShUzKFyZB6+9SS6SyAPIoOE2Jm3h/PIojm1RH7nq+5o10pLIACC93WWrhsY3HB/HKNqmWEB1cqpnWFaksCC4c+4duhYIF/xSrm0QoQl2E/HQKNWDZoToKXmn2TLSMI4982eqx4NfPHAghtx1jw+OvToTrdMzkmKx5e2IGLSM3o1tZt3n6kt+qVkhlwbBW5UmTJIRW06k2HrTm03TsKoRJMBlYUjIJCIwkLiyPwDu6NuEnYBlDpXRyNKpYS4zv3221lcoglSWA/4Lc9GYVEH5oJgT/Ju8bE6HKdisj+DFJ8B5T0ocJgR+myIb7XEfeOrxRy8y5aZVSiy64IpUlw9OVH5o9RqcnLRt06iZVQTBt4twiiaiU1FABE/OWxhsLM2qaN7RPYfmozrHySGVNqEKpIG488tWvarwp1DlWBfZ7FJgrq7dKbU2+UlkTykxyIm2XSh9JpXOS4C1IKAZOMpaLPGm5kVmeAfV0V716KNy83/jU/nDPQXUVNVZaKDt6YLLYiYKBQZ1L5ZHKGoAVq4zIXOrFMjGyVG0nf4I9CXstWsgxwQnkIyI2rZCLQXYkOfN4oZlEeKaznA+Tsah9CunM6hwqj1TWAKJEi8wEZI9BEYNuy/IT4XrPC+NhTgM3o68KKYT4U6WFt003eyDeYFjAyJ/xJefPXwj+7YHqVr7viFTWANojFCWUE712lU4MagfmXCZFGV14ebPSkoF8jHgYTjvYQ+Ff8iHse0rJJ88DqawB3LC+hScfldjV8RXY+lm2MKGqIry1XtyYfq/E9+V75ymdij1UHqmsATjbfC4LMB+n7eXN05F9BZU3qirsW7j502zwKUWaV+UZcnFq6yQEqawJ5A74EDzSaWswkftA9fS6COEpafItKM5NApqL8ACjgqYavzZIZU14rbG5zFuIjVLHinPZsqHcq3cUKVjQkm5eQlmyRl1jmaN0qxq3VkhlTeApl2d9Xxx+6jhxMFli7q278IT//bvJrZexcmFeTissNX/1ZAWTn7IglTWCDWge0q5+Viv4MfBf9JrsHplPNF/ztqHlWyffE0GJTLh4jk6tkcqaQTCji9CsX43bCkYB1zV5lYW9CQ5H9d1bwcdCCVc2/ARE0g4BZyVm91pvxtshlTWDtXLWSZJmcvD05AbqdWHJRRiKugZ9i1TWFBJz0oafEGSYxppD0lIZIS1lCdEJmKzVtehLpLLG0PiF6o1sFOMxTmzoMcn+YdPhsFuS+nwrmHC7iZPqFcFRWMkKI2UglT3ClSv2hf3Dybi76an9X6i42AmchP04OZpCT8C0YSo9jVR6hGjWqifxU+Capv79LgQ+quvTV0ilR8hrqErGnYKnZllJRVUTCkOoa9RXSKVHSAHtNmS8SDBZmkSCVavKD7NCkEqPECxXVXs551WFpvlVkqQe6j2PVPYphEeYXCp97xeRyj4lr7CVXpJO7bL7AqnsU8qu60v9KNoH4LXHzDrZ4MjsmbCXYjfBgnlK3/tDpLJP2fpZseHr5KePH14INnw4Ezy07mAY0kJxPCxpzRRV9kWYxX/y4L4wfJwypcSEFeGjwdQdb0jUd0hln0K4exFCth7efpdqg1fcvy9cEiY1pHER4tvUsfsKqexTqEflU4j/4qb+xi35OUqpnkgevI82c0QhqGP2FVLZp+BB91WWhwonPv0/RDS/8v50bnuVXfvm5XH6DqnsY/Ae5ylssIs0lV7z+Gi4wXcR3nSkFKvx+w6p7GOI4M1LyLAro2AaJX6y9F1BmBy/eKSmldh9IJV9Th491Qm3T1sZxRdk+3VT44pCDqQLqLH6Fqnsc6hzS+3brMKboyoxTPgxKEnaLumLPReFrOlgpT7f90ilEdr/qY/VrdB3kfx1NWaZMGEpRbr23cNhgQo29ISzk36g/t5YQiqNP0Mld9blSYJTDSdeTxYu6Gek0rgEWi08+9ZksGtkPoz2ZTIA5UnZDDOJLl+e31sDPwkm4Vp3h+0VpNJoC445rESEhOT5tlj+3HjYxppkLd5YxGTxX0JRqMV1++ox+TnDM1JpFAZVU9IaBPDR0GVKjWN4QiqNQqCkJxG83Qh/v3ZjcrlQIyek0vAOPgoXwSCgxjVyRioNr1CYLQ955CXzXXhHKg1v4F3Pq1IjcV5Y2NRxjJyQSsMbb293W1rFxZZanpFKwwtfvXEg96ae+GKsAqJHpNLwgq/OvP/1WM3bnFUZqTS84Ctj0aqxe0QqDS8QIOhD0rRRMzIilYYX6MrkQ4jQVcczckAqDS88tT4f/0dcHnvF/CHekErDC9euGl26pfMTQk8sRdYjUml4AXMsZtk8hexFuu+q4xk5IJWGN17bcmTp1s5H1m2y/YdXpNLwBnkkhIjkIbPzi5ZU5RupNLxCnaw8hFq9anwjR6TS8M5Lm91MvpQwVeMaOSOVRiHQ7m1xsbtSobRFe+bNSTme4QGpNArj6sdHw/JCSZmF1K/aNXLCTLpFI5VG4TBR3th2JBgaOxkVbTgdFW0YOHAiTM2ld4j6nOEZqTRKhbI/FHozC1UFkErDMCKk0jCMCKmsCBSR/v49w8EvHx0Nbnpqf7D8+bEv8tx4mIhED7+snZtoPvPD+4bDWCkKtMWPQUuE5jHyXvbQi7AVzuXLS/D9WWoBueyc408fHAnPA/g314fv7TPchPP69u2Dfz4m0GzoO3cOhVDHmPPm79p9nv+Pk5Tv8r27P/8ezbH4fnxn9flSkcqS4Aal5tOOwbmwwuD8ycXQrJmmdhSdlfBQU6mckjo0klHHaMKPSslQLEikwXKcJGkeY6xxjI0fzbQt4saNvGbDVPDR3uPBYGPTTWE4ilq3MjpxKpiYXggOz5y5BLzjc43NOfD9FxqbdWDTzjmea5wD5wH8Gx3nRDfcgcZ32fjxTPDA2oO5NMDhobRt12x4Xhy/eczmOSycOR9CGVauIX/H78Z3a35Heiiix+DA3/Fdzix+Pkbzv02jBNf2g8YxiXxmIqnzKhSpLBjs+hPT+TajZFJxE6unGqbSo40bKg/hx+Tp2Bz7ydcPhTdN2ULpUh40v3k2W59BikGULacb15FeLVeVWYFeKguCIga7R+aXLocf4YZtPSYThjbKecrqtyPHHa0E0rztihYKbLOUab0Onbj1mQNLn6yG4Exdt3lanqt3pLIgsO/7FpY5rcdkD8GrPk+h6DRj+8oYzENY1jy9Pp0H3rXqoy+hn7w6X69IZUGwZvYtOwYu7fXNW4u1bp5CQxrGpgp71YVw+9broWAfU1WhDYU6Z29IZUGwRvYtKl87zxuZDSZWNsZl018HaS4J25FnI9O8hX0JljN13l6QyoK4/8XxrppMdiPcuFs/m5WmQzbVhHW4ZPexEaeX+M1Pf74JZvn2SWPSn/P0nfISzo/QltZrEoffhu+Xx9sWSxuVV7BMbWv8Jq7XJ81bMDekskAoerbe8WaNy/bd6SwfTJ57XhgPjs11d+x3G0uQTn0IsZKx98lDjs2fDa8PhRmefycyHfMUdRUa89AMSJ1/K0x613KpLNlaxySPBfNuVpk8erqtzyV3pLIE8EuQX+0qWawdNLFJa336cM+lm/5ODB5w22MxOXCsxcel9zr+Ald5OGV1eDpqscnPKstEdywik7MKqwN8TfExvSCVJeFqe+emUeMmwZILx1ySXLx4MXFp0oprmwOSqtS4wE3b7ZsvLjgw1dhx8KJnrUjPzfyj+/d9YUz2hi5SWEs6qSwJvOgu4mLhoDlnkuCx7ibU5A7HzS5vNjVuE3qbuwgTPk1+CU/rs4vZlnU8eLAcxsd0rRFWWLlVqSyJP2zKPkFYInXzdG+FZpxpnsaEhqjPt4M4rqzCzZuUA0KsFuEoLkI5VDV2Kz9/eCSzMYXQEzWm68OQCabGzR2pLAn8CVkFS4lar6eBt8Jcihvt06FLfSpJPPpy9ic8T2y1NInDObkICVpq3FZueTq7Z33n8LwcEyuii/TlBNm6c3bp63cvbGiz9snAQDB/KnmCNB2CaXn2zezV3PH2E/2qxm0Fo4SLsATiTaTGbuJShSVuwWpCDJuLcE5q3NyRypJwictKu+FUXL58KFWAYTyuKwmXUBqWfGlC2OlT6CIsTZPitHAsZhUKU6gxeXNlFZafSdHauSGVJeES0btzuLvlTyuYTbG2JAnh3+rz7XjPwWPPtVBjxsGE6ip4ztXYTVyWvuzD4uNhNXTptEWkMla8+LhekMoS+Dr7AAevLaHtatw0sLlPEvYE3eYn4FXPKsPjyXsDuO4J965V7JXU2E0IOc8ivJ3Y4MfHwznsEvVMNHZ8TG9IZQmQVeYSdtLuVZ6GNOZYljzd7nFGJk4tfbp7YXKpMePkMUGSYrOyLofwnaguvK5Rz4UWzZPKErjr+fGlr59N7l2TvQxnGoceN7v6bDsIhSDLL6u8vxRCn0QeEySpQ1XWCAcyCeMhIYS3uERM8CZnz9g6pleksgRc7OK8rl3qRqUpA7p996z8bDt4crJWzipvfJAuIM/3BGGtnzV/hnSG+HiuDkIsnfExvSKVJUCUZ1Yhz/lbDg3102ymWRaoz7YDy5BL1Co57WrcOIRcuAph+mpsIEuSqo5ZBFNu61gEkLo8NLA0frfoPHWpLAGS/LOKaxOZPaPJ5uVu7e6uN27SxrkJBRpcpVPYhks0AKm+OGFx4FJ3wDWTky7B6hy9IpUFg6PKJe+AyiFq3LRMHe1sXs6yhHNt+YzhQI0bx3XJgpD7ocYGQuyzCv4KQmHyCM9nhaHOzztSWTD4IVwsWJSmUeOmgaVZ0msfa0y3SzjXvG72FmrcOK5tFJBOx6pCGjGZp2lyV7wglQXjasFyqXiBD4QnXSdR1pgkXGKkcFry0FDjxtmy0+0GJs+Dom1qbCiibkAncfFv5YJUFgw+DBdZuS57XE4aEy97FPXZThD5m1W6eWOxvHSRqZnTbZ/O6POqH9atzBw/6/S75oZUFgwprC7SbQhIK5t2JB+7XcBdOygF6tKHkOqKaZySeXTN7RShjL/BJZMwi7AXJYYtaxnZ3JHKgqE4QFZh75J2OaIgyDFJug2t/tnK7KZRJG3O9Y9XuO3dkE4RCDx4ihCsW5SA5W1eWIxVWqSyYFzyq7GQkBKqxk0C82NSTV72J2k3zE1WOJpe08Ya5RHJq2KlmmCazSr4gNi7kanJWwH4N7V6iTPDsEKCHMGWWX+/QpDKAsF/4RJ6QIyUSulMA2vcJOHp1u3r3rVi5GeNN6oaNw43mYvwpupkHaJiZFaZbEwExiZbE18Iwaj8Wx2n0khlgXztpgGn0GeeUlmdhB8PJFuaqFCuPtsJlyheJI3ZmpJFrjWrmMhq7CZ896yS5bpVEqksENfG+rx9sjyZOG6aSh3dZhHy1MQy5CL4UNTYrbj2WseU/IN724dt8NRPk2XZTthTqHFrh1QWCPsAl3YB3ORpUlPjpF0G3ZZQWSQOBeWyVgBpSppwbvqguAjONzVuE/xDLjkbSePXBqksENb3LolSiCpM1gmsXmnMlyz9vnJDd28nOl65SlIV9pXr3DbnWL4IQlRjN3ENlWlWvK89Ulkgrpt0pJvXOW8s9i1phChfNUYn8mg808msjG/CtdTPph3J38u1qEKackK1QCoLhhvcVdLsFYhMTesZxrxLaqgapxMuG9umECCoxibl18VDj2D1S7LKsY9KU0ivk7hkeFYKqSyYdQ4F41oFfwo/zPVP7g+XUeRk0C2JNX23XaWybDKvXJGu+EOSkL3YapmjLBFvFVerFXuKpGqNQDsHl/0HksbQUAuksmDCfHQHz7MSqodnHTOLc5Aib2NT7gWlm0IIPpVayAdPU9QujaRNwtqVQ1s8Yqlcktgqg1SWgGuFwDyFviLqHBVEImOxKTpmqVuhkqE6/yb4o4gAGHCsSN8qLNPIVqRVtTpmLZDKErii8QROCvsoQjAY4PVV5xjHtaphUZKUDsCSiie+L8GMn1R7q7JIZUnQJKZMwTFGoKE6tzh4svNa+vgSHLBpUoVdQ1bSCP1A1LErj1SWCPVsXTeIWYQQ826sVnk4BH0Ky760SxuXaOq0oiqc1AKpLBladPl85ceFjXC362SWYWlCVYoUHix0tUqbz97ENR8njeAfUseuPFJZATBtYip0idNKEiahS9MdntJlCxY39k2kphIeos4zCWKyfGYOYjJPqiBfWaSyQpAvjeMMP0YeliKWReQjEEqRdjPejsuWDYU/flJOO8LfZAUhv4L6XywF8ffQKxGfD5OiU8h6WjDJ4mwlyiAPkzsPNq4N+0p1vNoglRUFTzIlavghMQvTvQjPMD8GiVOtcDPhWOMHZ/1Lai0JRljL1NguYAUiG46+e1QpZB/FjYHlhjbR7G34m6zweZye9AdXba3zhMlGgTc29zhwSTemazCpAdS5wgwM5OnTcRcok8rbnuqYxIldu2o0XAGo8WuHVNYI8rIp80nFPTbOwL+JWcK2rz5jGKmRSsMwIqTSMIwIqTQMI0IqDcOIkErDMCKk0jCMCKk0DCNCKg3DiJBKwzAipNIwjAipNAwjQioNw4iQSsMwIqTSMIwIqTQMI0IqDcOIkErDMCKk0jCMCKk0DCNCKg3DiJBKwzAipNIwjAipNAwjQioNw4iQSsMwGuwJ/h8+1uWmL9XPNAAAAABJRU5ErkJggg==;" parent="1" vertex="1">
          <mxGeometry x="190.5" y="320" width="32" height="32" as="geometry"/>
        </mxCell>
      </root>
    </mxGraphModel>
  </diagram>
  <diagram id="oE1UEkc5LstEW0kfJ7B9" name="Page-2">
    <mxGraphModel dx="1064" dy="776" grid="1" gridSize="10" guides="1" tooltips="1" connect="1" arrows="1" fold="1" page="1" pageScale="1" pageWidth="291" pageHeight="413" math="0" shadow="0">
      <root>
        <mxCell id="2QsRzNsaBDCovpPSGi35-0"/>
        <mxCell id="2QsRzNsaBDCovpPSGi35-1" parent="2QsRzNsaBDCovpPSGi35-0"/>
        <mxCell id="HoTEYSFRrKAqflaEo-hg-0" value="Aplicação Python&lt;br&gt;&lt;hr style=&quot;font-size: 10px&quot;&gt;" style="shape=rect;html=1;overflow=fill;whiteSpace=wrap;" parent="2QsRzNsaBDCovpPSGi35-1" vertex="1">
          <mxGeometry x="322" y="30" width="260" height="340" as="geometry"/>
        </mxCell>
        <mxCell id="HoTEYSFRrKAqflaEo-hg-1" style="edgeStyle=orthogonalEdgeStyle;rounded=0;orthogonalLoop=1;jettySize=auto;html=1;exitX=0.5;exitY=1;exitDx=0;exitDy=0;entryX=0.5;entryY=0;entryDx=0;entryDy=0;" parent="2QsRzNsaBDCovpPSGi35-1" source="HoTEYSFRrKAqflaEo-hg-2" target="HoTEYSFRrKAqflaEo-hg-6" edge="1">
          <mxGeometry relative="1" as="geometry"/>
        </mxCell>
        <mxCell id="HoTEYSFRrKAqflaEo-hg-2" value="&lt;font style=&quot;font-size: 9px&quot;&gt;Vincula-se na porta UDP 4242&lt;br&gt;&lt;/font&gt;" style="rounded=0;whiteSpace=wrap;html=1;" parent="2QsRzNsaBDCovpPSGi35-1" vertex="1">
          <mxGeometry x="402" y="105" width="81" height="38" as="geometry"/>
        </mxCell>
        <mxCell id="HoTEYSFRrKAqflaEo-hg-3" style="edgeStyle=orthogonalEdgeStyle;rounded=0;orthogonalLoop=1;jettySize=auto;html=1;exitX=0.5;exitY=1;exitDx=0;exitDy=0;entryX=0.5;entryY=0;entryDx=0;entryDy=0;" parent="2QsRzNsaBDCovpPSGi35-1" source="HoTEYSFRrKAqflaEo-hg-4" target="HoTEYSFRrKAqflaEo-hg-2" edge="1">
          <mxGeometry relative="1" as="geometry"/>
        </mxCell>
        <mxCell id="HoTEYSFRrKAqflaEo-hg-4" value="&lt;div style=&quot;font-size: 10px&quot;&gt;&lt;font style=&quot;font-size: 10px&quot;&gt;Início&lt;/font&gt;&lt;/div&gt;" style="ellipse;whiteSpace=wrap;html=1;" parent="2QsRzNsaBDCovpPSGi35-1" vertex="1">
          <mxGeometry x="407.5" y="55" width="70" height="30" as="geometry"/>
        </mxCell>
        <mxCell id="HoTEYSFRrKAqflaEo-hg-5" style="edgeStyle=orthogonalEdgeStyle;rounded=0;orthogonalLoop=1;jettySize=auto;html=1;exitX=0.5;exitY=1;exitDx=0;exitDy=0;" parent="2QsRzNsaBDCovpPSGi35-1" source="HoTEYSFRrKAqflaEo-hg-6" target="HoTEYSFRrKAqflaEo-hg-9" edge="1">
          <mxGeometry relative="1" as="geometry"/>
        </mxCell>
        <mxCell id="HoTEYSFRrKAqflaEo-hg-6" value="&lt;font style=&quot;font-size: 10px&quot;&gt;Recebe os dados por UDP&lt;br&gt;&lt;/font&gt;" style="rounded=0;whiteSpace=wrap;html=1;" parent="2QsRzNsaBDCovpPSGi35-1" vertex="1">
          <mxGeometry x="402" y="163" width="80" height="42" as="geometry"/>
        </mxCell>
        <mxCell id="HoTEYSFRrKAqflaEo-hg-7" style="edgeStyle=orthogonalEdgeStyle;rounded=0;orthogonalLoop=1;jettySize=auto;html=1;exitX=0.5;exitY=1;exitDx=0;exitDy=0;" parent="2QsRzNsaBDCovpPSGi35-1" source="HoTEYSFRrKAqflaEo-hg-9" edge="1">
          <mxGeometry relative="1" as="geometry">
            <mxPoint x="441.8571428571429" y="305.28571428571433" as="targetPoint"/>
          </mxGeometry>
        </mxCell>
        <mxCell id="HoTEYSFRrKAqflaEo-hg-8" style="edgeStyle=orthogonalEdgeStyle;rounded=0;orthogonalLoop=1;jettySize=auto;html=1;exitX=1;exitY=0.5;exitDx=0;exitDy=0;entryX=0;entryY=0.5;entryDx=0;entryDy=0;" parent="2QsRzNsaBDCovpPSGi35-1" source="HoTEYSFRrKAqflaEo-hg-9" target="HoTEYSFRrKAqflaEo-hg-10" edge="1">
          <mxGeometry relative="1" as="geometry">
            <mxPoint x="502" y="285.1428571428571" as="targetPoint"/>
          </mxGeometry>
        </mxCell>
        <mxCell id="HoTEYSFRrKAqflaEo-hg-9" value="&lt;font style=&quot;font-size: 10px&quot;&gt;Insere os dados recebidos no Banco MYSQL&lt;/font&gt;" style="rounded=0;whiteSpace=wrap;html=1;" parent="2QsRzNsaBDCovpPSGi35-1" vertex="1">
          <mxGeometry x="392" y="225" width="100" height="57" as="geometry"/>
        </mxCell>
        <mxCell id="HoTEYSFRrKAqflaEo-hg-10" value="" style="shape=image;verticalLabelPosition=bottom;labelBackgroundColor=#ffffff;verticalAlign=top;aspect=fixed;imageAspect=0;image=data:image/png,iVBORw0KGgoAAAANSUhEUgAAATAAAAChCAMAAAB3aBOTAAAaxnpUWHRSYXcgcHJvZmlsZSB0eXBlIGV4aWYAAHjarZpZliQ3ckX/sQotAfOwHEx2jnag5es+RBSLLJLd6m5lkplZER7uDhveYHB3/+e/zf0XXzV173JpvY5aPV955BEnf3T/+fr8Dj6/n+8r/fgr/PF1N79/+MhL6XOkvur9/A6T18vPD7T8fX398XXX9vc8/Xuinyf+3IGurL/P9ya/J0rx83r4/tuN7wdm/d1yvv/H/dsyPuf+5d+5EYxTOF+KLt4Ukn8/4+dKibtII01+hveTa73XJj8zP2Mqf46f+97HXwawt7+On/9xZ+lnOD4n+rGs+kucvq+H8svr6bfLxz/cUYjfQ+LPN/R1UvhxT3+Kn9npZvezupmrI1z1u6gfS3x/ceAinOl9rPLd+L/wd3vfg+/up99k7bDU5fziHyNEIm4hhxNmsHDf7x02t5jjjY3fMe6Y3ms9tTjifgnI+g4WmyM/J3Uysclc4uX4272Ed92h63GxzpVP4MgYOBk5/uO3+/WFf/f7DycyU5mHoGCS+vBJcFR9cRvKnH5yFAkJ9o1pefEN7vPL//qlxCYyWF6YOwucfn1OsUr4WVvp5Tn54jg0+0+/hHa+JyBEXLtwM1R3Dr6GVEINvsXYQiCOnfzQ7j2mHBcZCMWVeLjLmFOqJKdHXZvPtPCOjSV+XgZeSERJNTVSQwORrJxLrvRbp4SmK6nkUkotrfQyyqyp5lpqra0Kp2ZLLbfSamutt9FmTz330mtvvffR54gjAWPFjTra6GOMObnozJNzTY6fvLDiSiuvsupqq6+x5qZ8dt5l191232PPE086QIA79bTTzzjzhksp3XzLrbfdfsedRq1ZsmzFqjXrNmz+lrVvVv+YtV8z94+zFr5Ziy9ROq79zBovt/bjFEFwUpQzMhZzIONNGaCgo3Lme8g5KnPKmR8xuZRK5C6LknOCMkYG8w2xWPgtdz8z97d5c0T3X81b/KvMOaXu/yNzTqn7Xeb+nLe/yNqZD27TS5C6kJiCkIn246AZO/9BJ//eb/fzhVvabg0UG22nMkuO9RC7ee+d2YA30AGCLO3kMS+L7vp37+eG0cyFSAhzX2T+nDJHirkmWxsw7LYb/09Ktd5a9lk0ZxprUKX3EtXCu2UYGV5UNqhoCQWQwr07oATgmr6txrhOajsulUGmxsM0LjMC6ZupWwTxb7Bzslme10W7oRS7o0Sd7YZ1AITp65i5RVqErCRrY7e4trXJ50Lm/LWHU64RhXmPL9t54xZX4to9a80rqsPLZK3VUClz25pp3Ehp5NnI6N5rJbNEr5ZyqIJSevLOahrUjY0Tqey1SV9dvvW7reRuFQLZNY9d0+lhnmv+tF0yN5YXV6hkJ1CILC3SLLXlsyInKXcM21Qj7MdN+nuLHS7F2o0LtWE5nVX7nGHmu1INJHv0NY9LHMuCu9GV45ZsM4Qzpz6+wvHjcGMhF/6ThPn73+6fHfB/+d36aG6XhIS6vUzq5C6jR0M/s47UwAJaAFGzA42zTl0nqsAmKB+K9XTjWp0mJ2nZ9Q4utByGKjB16tr2ndE6oY3hNBiY95EZex9P4FQLnI6i7H2f5ot5yrEmgI0O4O08yQqolzKhVmX3RP4SdXcq9UKc1qrDboaVrFWVZG5TBQNopBld62eVfuih0/n4uTGtNmLxxhJnomTI1R1WuOFr5651TrWdQBvuKZ69S7M6guM6iQwCC4lUeaPdGqWNejVa7849bzXuNOZBTbVBv1EC1+6irwuNV87Zp2RXN7Vb0k5Wqnngi7u1BeafQgdSEKPuHm7pLWbPako4ua3TUD89pd2KSnKu6iye7ukJ33ej6AADGmhNAx/vPCfULFQunuslEfnwkvigrpGGBewETxBTcfsEAtgnHZjP7icMpBDlnG5vCiVvLIAXnF2kkqYAQFIeWsKiDHoDZc6t3Vkj5AtkQjVznCrkDum0AruQIaCILqJjJo2XyhFEkO7jQbuTSvtR9i75/xBjv7/dn98QheZwe1070MAF7FgXig5zh7kuMAFbRVIDxfUtfkzJkgPyqJKbKDoW5Y8FcrvLoX/I3QFsF3/GgzWwe2QJbMIXo1Tcw6FiJggDtDvA66yjsIKbknPpDArTgAfO0Ffm18n3oK4gPAClgvvUnMCvlX2th0WJHQeWARsNSOw70xNUXk/kbgGuFN0J4lywHGorJ0XaYPCrLb94E4UNXObLeclauFagdlgfBVws17aPicDboTbbhivbBQqWjYaAgGVHGPd1WUscX86kUVxpo64AEEdCGUfxaS6AEUAFSAg1spJo1UMVFHXgvbFSBzSFTpXmGdYzBOPoOLQAccoblAXRO58qdE1EMcAh6M/VhNUUVlr02GxRLASr0LazHgp3gvYgZCgwS/5PUdL97QGFOiH3qyV0Wlyz01Eyz3egx2CJRpF1xEdsRVXmQk0sCr4yxeJmdFJeHYAookr0P9QSikQU6EI/qmgO7MSZFCSEikH9/bjqDZmGCmoZmIh7xAgg3b0o2C0CXrDvhrAh+Q4bLaOu4LHAdQO2FIRA0SMiJlU+TR2w71KVHcTiAvYiIqIa6u/2POliSoAUGhAOQ6LMJiedmZWAk9a8q2mPm9qTKIDfifPClihGFBqkgvgcB2ic/QIGNBPgamgK9eUi+3kbBEEwnCoVqGCtI3tkHjDmqdRw4V3Ad8ADccy9qJa0awusfSCSaxYJeamRjc+z7mgOQ6BAMItSa51FLCpI9Y8MpFzCureCjHFvsQt0NIEjbOyYONJWbO/LOh1HIHuHR7YuY/101wFeQazoqfGNAYIE6Zeum7IrhVDrmVQz7Wt1ku4dJxqS5NNQPtCKKFkUkHEzgGBeERo5IcIkCDYpmwpiUxVJWAlezSiVA9Qc4uiK1NmDkRDBehW6R0T9y/Xt/skBpSt05veh6uDjnch8A5VQ0LT4I56Jeolu0HcJ0Iez89zbiLkt7DofQxAVxCZaSQ2BrVlpIvA8FUR8V2lNMsKwB8g/N6yuOW5fiOGT474hA7exczbuSIKJSmuCYj4PAOAXKqq1F6p0pj0HhdwoSbezbj4fTzjHvsAufIbtSLiZTnVSS+GspGTyGnwOarw8hIeQI8Bao9foLoIFL3SFh2jIA6Jl4kDaNjkusDLKm0PWR/egt1/CPOeYYh0k1Oa03BGI7e9Cy3A3ME8G1GyvnLkiS4oSxVhs85U6u77BpUdSITRs2S7Q5hgXU4enhTdQUIhTQwohswQMElqU5LgBeYt+R66C+JpVkY0GywKlk26g+vmApLZDGnSgfEqTtkvJIlJFcwf3pznXrRUNAgZT/xteaoi1DqEhlHAQ6DsPUlOzrnEHcpYWOAkrRkuVtcKlwxYSEHsmDY5JMKwqBgZXFoOk4+Y4dHCqBCbl4yJNHAywEbN4yk4hFhAIaSE8gA82Ac74ItNgh6CEpj/90oP7bDHCbU6MjNTBqCx8Doqygj/AGn0jDqJ+scg9bjQSFoG7ECjDYCIQ4rAh3ZHvze4NtiTfwecJZq4iOsNrxCTCM7wjig9o2vATtEMKsLfUAIKK14gkWpPsOQBPUucuHEuSyzUgBvLiI5dkhl1ognW5y4J3R2+drgzs6EUEkoGwwqKOEpmOSNAkDRHA9XJZSqeaMF6GMzpIYpgnImjoVSRgYClPA4KGW7YLUjnb0UuiKeKK/kqBN6vJdSLRKEJMtlqyZECSlKY+YKu0V2r84/aPN4Rwd3SV1ibZa4F7WwM0P+jJNjG4OwGMH4pSOFEvkStFedpUQIg60FGXwNG4y1FMcIauSXUkQBQqAgz9QlLt3ZG/C8ClJfCrnTU9IMCcwI29ZxnCeCr9QtY6yqyXJF2EQvLYC+UPNDbcASJ2F+EnPQzePF+dX05JCEzkSW3eKA5HowYsZF2DrhMzy6hfloIU0Viy7PhOBGXKDkB14+6rsYQJFm4hdjhF6gjmABzmHYsrBX81azgjp5bEi5yQwESk9zh5d2oZ8vCUS6RLih+ytTMRHIdQwIYWVlk7rEG4urSUZiEV91GpVy5YcF2UYCzYHagq0Aq8bzEbdBmBtOEIndwSfi1nkDZdcqVSzy2/JWFayZH6Ht8RYQHkzlHzpgaIswo+B9gg2OFVypdFTMEwYFIAmQjgSNsgJQqcTEeDER0QEGv0WIL60KsuO4ytGQd4lC51lhHep/IR/BOhT1LGDU4l2JcuwmFSW4AkjO1D48aPJy8oIjz3DBzoLq0PYmhCfLMHKIBmivFW4LMYMDW4sUNWaaiB3IRnaZVIy8hQBTI1R0l2HVqeRr3YWW7GyCaBGRsaN41HUe6a0Fh8wwdqSNOPwJ+aedCJ1mlbGhERwccM55hA6qPRweVsG2gyyTXgsqWG9NII416QgWaoglNywOElsdhcQanjepXwhXbWpuLBuMMCYTH4B2lFldZGJbxhIE4OoTZoNjwaBgIHbLi+QUrw/aoXpHijjxD9lpCUFQlIyFD4wAvJwNXD3QGugVc2+DMLZAFTQ6DJb2pSs1pahW4aqwuMhPsXLa+J3gGnZ81wG3bgNQliQuN3j/Z64az+c1OICBTb5oJyGSBylCXFbVP3SSU3WKbRimCqUoAd3fFpYuRvfSMimLBozATXOAQ3MUdUaCq2USbZni5ptFjrklgAH56OHkf7TVQU6yXJotGlYdpK+IbeUCMa4GI7spceXHLJEPRCg+K+Y5RFVHiGjBiLxQQG5MvU8RWCKDQXnB0c1Yf4L1Ujf1KxAhnJY52B2MWV50U7S2hTbKhJTVoKjAbhJtBS008sNkImauwDpCH/QD2gAcLAvIKaM25Icgl6BiXsUWmYcZAdcgVicShXt835V8BeHMeFoHNBRxrBo4+LhsgYGaSUZgzP4CEF8b0aimLQiA3hR92CQrsi7huRvY5YInfwLh2JwgXLAw/QbiWNNZeGlxJXcnCDikNx0CMNhZkGAp8jBsnHi7yPRZHOB5m9WPWCxIduxlLCSBqmYG9RAVV4GzeGVibyDRUAMzAlm8tRA0vQ7KAdi9R2ruNVNWU5NYyhVzpthttByUgD/jIu0YQgd0ckPFAAWmDG0Yjz7kN1En5f0VB5eQtJQ6uxPSY1y/5PwGG8ECDt8UFcYLrL7UDJHvACTz2e/0QyEgslMwORRVg18rOwJdbBJRmJZ0ZQN7QUXQtt7+DmIKHcbRSDzYSU1qwRmhM2cL4MXkVu3QheeGZsd+pti9TOfgO5Y90TIxaJMrxEQEOOCCtxGzKyBDeAL0/jKI8flUNCvjpHkxA/P6eGstvDwgJMUbSIsgjYNNwIqhEQzBN3kz9zpAxWjZkqXBJg8SR8kr1UJpc5Ir3VZsCBBB+vEmtgdPWhkVrqGkhRlwSZmE0UOTSumQDqCYqkb/25ySMi8Eln+8lKPR2Ea1Ed8lIfRGBBgT5p0SthT8HnjoqgARE0k7gWoMpLJyYne44Nh19psyTxBKMQMjRxJ8O0C6uM2BJSlTQZXRXGg94MLV87gA2OcZBDfgAHzcOQ5BHPDUbQ1WA+q+EKCICD/YbZIHmQzWvwYpUipPewUwMjsnstDglP1EUp/WVgaW9ksLaOX2yAYibgRLlu6JbgHNCvL0ENOUlI5RDU0ZyoX8mBGz64TP8smgMto6gF1abGjgSH6uNv5D+39cpAIxjeXh0tV9prWu3l4GQ9wQcsaBBIYiLDugbru4B1Kr+9PoMeaA9z87lslbBQcZirn54B2juQRslsqZvfPqnPtfe5H5/CWRdxCeEsjUz7AGFespYlG8YFxyXXzDT6vDoP0uCWN1KrtI1F+vDd07xYiM2FSWTW1O5qvOeW8XlsCeWApIu096sjWObQhTHvqcEErqx1jsvWkKh4QE2ijSbqn3hF71iIIiadCckUeZUsb1jbaKNShxpK0M3YVUQvuUdyczmgMHGqHbctaGBB2W+qjHoYmuuQqsubFycq3wrdYisRgBv1AIjj2lECGGBxD8a8JKFgxt4UV8BvaAN1tGQiKFosaeOmcvaEHN8g8iYkF3JdUZIxH42GKdqLvdeshLez02BEThm8IA4U24X4icZAyVHbEgtb86IJQu7A3WVcH9J0a38Z1dfxm+A/skZ3UdtTT2TEl1ffB0Ox9AQGIQFg4zNrYDTYHS94p/1/pFNHZF9NxyOmBpk+CE2+iISpjR49jQFQQjy0CJxMsx9iHA/WnSg0bsCjs09EHdbeH0Wt7irODe2NMNIGcC21J1BIMqrkVTlmqzUxREPsCarRrpq3JhmxfcrzPblOlw7NTTlI3YCcoWAHSqPCu/rMj08rgOLzs9+X8OsFWD44ZdMwfqBPqBAHNFFihdT61LKsMwSGwEY0k38JZiCjLe3IQyfEE9s/DYQ4nf7XtEr7CSO4i95HdENVoD0EqGVG7TY/zu9obBP2mmZ+JvCTwD2IGcAd4+yX2OuU4S53eEUImGva53WTfc9A9r7nuFFznhhK0lAEPYlztBmg9jLAevjKTXCU0k0IWogGNj8UHm2ME9lH26GBHt8dQ/RidJphk8ADABWKX1owd5nMTVCLvyYZRdGQ0eYJPmtt4Xz4jAyA0Og+lLRGkMMkegA/+2x42NMg6CP7nQT5SJS/VSh3eM34OrFGlFHh2Hiy3sZYrk65rZQ1q3s3RLk+fc0yqhVeDnRFXtp206YqbjNGzQ9O4jj4wh/J0wVBVkikLU1SkRrj0JgN2VIvDChUoMLQl63m58Kiin8cDUmReh3sQqkZhtMBNih4XjKNetoOqAbTJPGV4mxV+1a0j2YBvn5oFvdL8Ufty8/gc6Sto0OnyoNZA3mz5oTAIPKdWkN/ayhdEd+QDrQJU83S6NBn0flwAQPi1Lxc2/S7L3TlDbua9rXpkI6RpYKgrTakswghguC5I80OkbZVm2VgaCXQ+LpRuCOuiTzDy9TIhzVLUaJ72xCPCEkPALDkUe8eSNa5UcP40GSFEM+ZNEI7sLEDufrO19NX3Ax4T5kg89BtCOCgwRGIhoYYGmqhPrZHl9mbutNRkhLgM9lyMChASSOBFdrAzLQLPjFp7EN+Jf45vGgY5gelNfDPHohdPVIlCGS8AkhzXNaeAH7lUNj46KAtQtgK/whtRA2Q6JOdkeDhFO5Om0wH21vexkpP8tjqE3W/Gh6JFpBSINGGbyV7C14Rb4GmRmFCUqVpJoEIRlB3dSw8r0HRxAFyObexzRhDSOw9QHUXF9vwHC0Ouq6g4tOkGx1V8NRbplyOxYc1VtBzG6dq6KBB1NHWIWTogbJwca144IK11x5zQwYpJEnbO3kPtZNKq6qqm3Bya1/uNEeLhre7ivqQDspCk6RHvypuYOlxpdyv11EkeXYqAg20tIWEc74tpyXAH26PmgkzWmljOKrAEu3ZxX8ZnpehLakBotL6kN34PJtRFqp6yP/Pz3zJoSmeDMAoZMEjyL5heTLnaZXj815U6iRBmDA0OcI1fLlPrUXNfEVElRqTpNgFJdIwDk32eOlRno3iR5xifRtETg60sdhvazCuNK+cK9IOlYzNoiPhLi4M5OhJEBpbrapx3g2TOtVetx8H8oyISo3U6Ui6nLrnc9fQqwF6d1nPi2BH+KgswciVywQc4s0aUG9/yBumcGgbHXwPGRm1VREHFodSNYdYrbszkWUYM/wDnaXdToDhsz+qOWXTwKCGr8vHvQkI9FQKCudq1xrK1ExKTx9CsatGmr9mzdKpb7QfAgW6yuA1YqYSIEvLjkgWdhL2wwhoZMgYa4sYqw6DslHAaUrqG02ZS5UP1957pLaxrXsgMgf9rzGx9nVQPd0DAHTJs9uz3vzk8SGg2lBDanWJHFg3dbzhPhWjkbbwBgjJa6MNMnZ3aa4ympQPik+uLTmcCg0AqZNlzAKchiMJgni8FIDTKuTALeNG9fwXePz2AaEObdxoVnzJpQ3X1BwjaFzaaIasMbsegZiSWNB0Z3XYhPMeJMr9PUEaIC+KB+RHZ4HqSFeyRoc830EJSUzS/dXHzvuIQm2iZz2dleHbBBTiBCuWY97bdKaqkSriltU7tSbkaU1Pnuk55HoQVl7PZGR+AErloCEG3bj64ZaXBqmDMzWaT0+rCQNWcdDLY3C6Zsejbhke6YM6VBMAnvM9FPURXEgEupH0W1zjU1t0UF/IXSgbx4nwrxK1CLEAPehJn4QQJ7f4wUjlVw16SQUL1jwkbOxh0AMpW9uclOp08l3IN0WKRsEx9JGWcF0SOUDHuioO27MmCLD5FeFyr1kPrRyoMwAKN+5w59CLVHmhHMHGFiSHvcYamk/gYZt2ctOll6h39H9/m5KIC5BgIcppg+rdAdIoRT2nccOb+jzzRD44JyIKbmhqmHCUf5xsWAAo5QljNVSVNim1/YoYLfhu6FSsrl3XrjFM1rZDbeq0gG5pSCFj8bkSZMy9x3O2IEow3BshCtOZ9mip4XwEG17jDtzrljFHyeixFTACtSQvGwvi5yRtb8+mQfpD+6UJGTobZ0jmC4a3Af1N0/CJwqcBN2XYe5S7Q7JdPUDGjSqKZpr2vGkkIZCYNqekRMBJsy+aLnzkHqiPVC0CDTpCTQ5e9CJ40p5Z16bvZ/Ylb5moTPcTU7hef3tqcoBQP585SE8s15s4QppwbcUysn68pkYlUcq1S8EEp+IoIK8ev/kDwOhZ5qqHB4GwDS56PeaE8CAiNVCR+J6ppwumBvw+u4qIhMs3YmGkCuyG/aaHY3CdnKsweWM3cPx6vAU1JOWOkgILKfKxyMClAh3BASsCnGCfxxQ7EACTikwhB7grgJ46N2iuDbW4YVDgQTuMiKR1Nczt5rSJ+R4/k4zBtiDO0GqENSdq+0gYS8hNqKQtimsKIdCqoCDKTURv2pUPUiMa+LWCJNFEnqbEq2EW6ylvi5xF9vcX/umX3+Fq5wHPrqzNfeZ7EgxRb9pQgPO4ez0SgyrK6Dw9mmXwY3u1QEDXUp6r+AXUfRejIK0EoDLrYQ3YZz2J990mQFtfM43JSeRT3eUz16Z+t8YUR4T3PRnSDytLUUKeyHI6g5RO6QPc4SEhUdNQDTbC2/VEwQAUTQ+hlbdRpweLTtDTh1nT0Ei34edXyOgtdKsssO5Zj+dgCjXbQOYjlt5zANqT+jVq7scf4FjKGGDthJGfvs97ciBlKWKP0pSpwSIKxf/xM1r02BkIpv8F7W99NDZXfnQAAAGEaUNDUElDQyBwcm9maWxlAAB4nH2RPUjDQBzFX9OKohWHdlBxyFCdLIiKOEoVi2ChtBVadTC59AuaNCQpLo6Ca8HBj8Wqg4uzrg6ugiD4AeLi6qToIiX+Lym0iPHguB/v7j3u3gFCo8JUMzABqJplpOIxMZtbFbtf0YcQAgCGJGbqifRiBp7j6x4+vt5FeZb3uT9Hv5I3GeATieeYbljEG8Qzm5bOeZ84zEqSQnxOPG7QBYkfuS67/Ma56LDAM8NGJjVPHCYWix0sdzArGSrxNHFEUTXKF7IuK5y3OKuVGmvdk78wmNdW0lynOYI4lpBAEiJk1FBGBRaitGqkmEjRfszDP+z4k+SSyVUGI8cCqlAhOX7wP/jdrVmYmnSTgjGg68W2P0aB7l2gWbft72Pbbp4A/mfgSmv7qw1g9pP0eluLHAED28DFdVuT94DLHWDwSZcMyZH8NIVCAXg/o2/KAaFboHfN7a21j9MHIENdLd8AB4fAWJGy1z3e3dPZ279nWv39ABtScoRBQU4KAAABg1BMVEUYAABqiJXIycm4ubmzbwNGRkbZhgBwRQFZWVkBMkiFhYV4eHjt7e2yjlH19fVQeYypqakAXIVVNQOYmJi0l2gAU3gtbIezpIoFYYnNxbkwNDNlZWUGJTLj5OM4JAFPa3fDkkKNdU7FjDHDeQEAR2bGvK7e3t4tY3qClJ3T09OWpasuV2ipm4UBGCGIm6OKVAAoSFaweiPAxMYUZIgBP1qvs7XLhhW2hTKYhmnRgQEWWneRbDC7vsDz5c+fglTkkgrllRKfYgHUixMWU22hrbK/tKLd1MXN09X18+7k39ZDXmrRzMDW293f29Tf4+S2oX307+pieIJRUVHn5+fOz8/u6+YIUG8ZSF3r5+N+aETn6+sATm/bkhr8+/ZtWj3njgDgmiXb3+EAEhn79/aLjo8Vao9ZUkYqGQAeYoC5rZrc19BNTUzprlBETFEic5Z9XCQLZYttbW2CdWH7+/v////jjgDgigDjjgTv8vPgjgnW19f3+vvnjgT7//8AYYtAQED///+W5EQKAAAAAXRSTlMAQObYZgAAAAFiS0dEAIgFHUgAAAAJcEhZcwAALiMAAC4jAXilP3YAAAAHdElNRQfjCxMEBBuAeK7YAAAPQUlEQVR42u2d/W/aSBrH7YBZ1lzWdh0oNSeBAlE4uqIshLTZ0khJNlHbX3KgvbASUVJpfRUVqRKahlV1kudfP8/4bfzKOCFdkvHzw2qb2qH+8DzPfOeZZ8YMk1hiiYVbne0nEMitKXSKxavOZgKN0L2KmmnFckJjvv0maZokWcwSN5trgiaVS4oyzFvIEiSR1ihqB10O6NY6MYhJ9YRKVMbXtP4UGGYhey4nXMJTvqa1EK1sVvezlhGYJ6VuQiYMWEfLKzov6FSi7motlP+vCroJgpDw8VsBuRhn/KHLc8DK/ghcp5xIDd8oiVzMisEeD040lxUTqeG2sZ6zAFDtP/dySqs1rNVGedvXxgkyzMq60h8Cruf8RJwYoyamzoRkFMCI6dqrBabYT3pZAGypYcwCJHYlIWXZJkpjKvaTFZ6zkSlDA9lmos5s66A0Jrp/mBJlVVankJwxDEjlJC5N66M0NukF/qWY4yxBe6AmrExtUdQkBZRC/rYnT4ARl9L7xMls+ToCgA/9ex0ZikuplTiZncZaWBpjBa/CV00nOyi1E1pGUOb1GTg2cHoLY72pMc88+SwmuIygVDDBr+v/suwhI35GYZkHSVjCILzSavokPOXEqO5xOfc17emBkchyCS/oYhLuYgIcBXzDgNwyiJUS3Q/LFkO7zgODcgvqfK+M6L6XELFBL4lJpCyAPQF6r0KR70tXK32D2CRFPbExiklsEi7j/DCyBjGum8QkKu9jscb5QxJJMgmNldQT62twnMTn4GqI9q8b6oL6qPTFJCOHs4UFjkE7iUl8nIywTUhsCLK/0z1OFr0xGU3MU6elNibJZHwHElMiChyUpP0hYUxCdwyq01JmxjI4GQO42gSXm6geKo3pUYm4vgGDMkt12u+gLEaoSKGLRdZp6XCxE9K0j9ZOoEdSncauEIJurKAc/E63i+nyqkSOF0o3qoNyExEjLEKjkZI86T1O+xU1DhDmpbGR96keKZn/opGSjBjM+/BqqvsuWISAI6tBF4wsNqGYV2qsjZSg4nTiYsHW0LQWrOYTjpQwi7UAGNAckVpuAoi1gmCkfYrVq6CNeACIg4y90mIUhR5nCivzQSuSc9I+R+tCZUOSZNjiSiytBMrTPquNxBgRaab9Ib1pX9CeI2CpGHdoMeqOj826HS2nAhBrdaOjxak7PjJrSpo6APEykuViVE7Bm5qkxhkjbRdrUaosWC0PRQUX6ybkYrHy3qMCVgKx6zWmi9FYSNR1PkxhMaOrbMyPaBSvOjCOuFTh+KXpYiqVwDDZ2nsfI4tBF2vTDawt5HVoJP2/cApOp4sJzp55VOl5z2SJBGnBdLEV+oBJNrCGPq1+niOb8/TN9SPqXIzFgAnGOi0ZhDGlWYxFfoIY/SZpMeoQVpWHNhdjixARkqAs2lRKXIewXIy2mOygts2pGZEx6hBWawpthcQC8qmJHpG6GJWGV+QuVkDbKVu0LVEKRhJLMQ0JhtgmeR0CuZhWzLPUJTGjlbqpP/0W+Gx0cRLVIcrmqSASXYccGa3UPMr5ekraRP8lm4z3fzXPBpQ26YpJndDkX6yhRD9fIYBkpa6uMhxJ1CEzW6kFQ1fFcjFGhSepGMzoORqwgAhNC4YGA61inEZh1Th9Bh0MstmghJg+2h0Afmz0TIABixqFSZeRUmgNxThLRSrTUbSGjZhFAQ2SSMOO3WdazM9kiBk65oKSw2dMfYBSGJwcjmFwxirzd/mJ4WQnJSrK1psobSMHg1MdVoJZLaaziFMwRFveqJgrqbVRTTHOD4PZvizp3hZ7iaNbQmepDKlYr8xZ560ZtZ26pAdl/AeXOXiWykE2RRExM9c3pFvtkekhJ8tT0agiw+U2zk5AjXwLTG5RsVfBAS3H9bRlFXcM+UC5VfdEN6s7WZ7Gzc5i65bVQf75lS59sys0Eou7/7bJsn2hzqLZFoXEUu9jyNcmKxQKnSvrtOGIMxYfsa1MCdNYgy0UsfOspfyWotDZ3cOTPHVdsGnlR7WtoaIoLo2SEHMba+KSRkOLlGlU7uHi50flGC3PeWBBVUfndhGZm6ep0FlGNQ+srErtdqTUXDVWMFeAjTjMybKYnDAcbUWTmA4rQUVixqLuyfwpZJ0VhBjvg2iwj/XVLmVj5WgYFb2NulCAwrZ4tUn2qpamMIbV806nsNhXuzxdWztei7DdoFtWg2x3LfC3GxbtPXVjfTIfKkK6qJPYMoJm2p4gYVJ4UcgOj1fX92c351FW9RKowFsC7dv+dmXVfXnF+jWv5gymB+bL3oIHx17B/XKb5/KcVjzvDeVFDLqHa+vRrAxgqihan7ZxXJnNuz7zMhDYF1mOzOiy+W4MKRdU22Y1j7W46MFX8FwvKdk7IzvePiexqtMn/ZQE8Pn57GUAMKeAHUbMejdGwDpIt+MF5nktiS9/ea+/xbqM19Zm5+TA1Dh3nJ+/lOMDY7oD890YQ98h/E3JByCy3NYu+K7fuuvk9Jj06W1gxHfotjcQYwNjVnLmKwWHnOfR6nZk2fP0yL03Dft6m3QN3G2P5sa+/XA76b0XlxFmAjvMYED0e3yW3nECdnZmzrrjAEMvlVLgq5GGHu+xU1htE6uYhceYncG2BBwYuEPT9pr96D/4Zr0BpmKPfn6eDrnnsupcYtaz4gFjVnjjxZVDNwwH2OcORiCsa70h2VT7LmB3iMl160EuASAChjnYXuhl3C/292CeHBATGHo/HmhJnjO2HGDA5WJyxHTeSFxuYLefeB3uYw9GYDLz9MaV1MKIbWOAJrcBBjt6OHCiE5MDgTkuFronoFt0mC7Kw55mXE/PwRJBhHWxGLZ8kuNlUfbZqxvsKvFWwPRBTuWGOjExCJjjYqEN2/jVi/KwTzMcGMnqjgPM4MUH549P+xgw/pbAdGR8K684/ywcwecrTFkE1dpSY+sCBSzMw9zAeCY2sNBbTjFgg1sDgy+t+dF5nRkOzHGxUbDP2BpkdG/A5NjAwjfu4R7G3QGYrsoUm5gL2PMi5kF8hGj9EQSFZKNgWiuqGGBdNFwQsPBHXxgw9NKMUgAwMI5UFk08xwUAsx2wNq9sjtdFHgQwqGPFAGDlSGUh4JOhSGA8z6vzgLWm0ylcjHlqAcvcDlj2uwBjUoNcADB5HKEsMNEaDIwlyWp97BMA0H/w8zfrQV4sMzBdUwUAE4UIZeF2sIUBc5T+7HKpgQXlMJHpYMrCPaP+ze1ggF0UsFX7+W+2X395aMCEUGXhvhLkmosC5riYbqenp+tuq6zuLjOwfidEWbhEK7y0vjBgLmIB9te+uzy/VMAYvGqDl8XquOvBcF0gMGYtM68MuL66rMD6xUBl4Sx9mA62UGBMdq86p0Z/8zK1nMCYAvZEkxDRCj9vocDaWfBxL70TWXlO872lBGa7mEtZCK7nhK5XjxCusYHBIrpRKXWZq9Z8vmeuZy0ZMGYcoCxs0Wo4GMcsGpg++cjOqzVnzO2iywasH6AsPKJVvT0wNgyY8er3qMopfHJ+CYExuLLIBYlWNHouHhhkJucGXmpnp+fu0unSAfMrC69oZQLxLACYfwLXFeUKDmy6hMBsF7MW3FId96yo+/2AudbHzCdfPmBeZeERrVPm+wJbda15LCMw9sqlLPyidemAvbKnntu7CwS2cVzZ3t/HZxkhYhN3saxXtGaZuwDr34+HOd0ps92FATtcP3zz77dvNvAeoGBgrC1e4Q/LeCnfni8tA7BL5/tzpqOz19mua4XYC+wJIbCN9Td/vHn35o/rNx9eq6lIYAxemqi7ReuEWR5ge1gO+3nHnnb+glpu7I4CL7BLQmCVoz8v1i8ubi5+OsrYO1ZDgGHl1JxHtMqhwFjX2LAwYM/WQ4Fl8Ed3iJ2n4eMduxbjsNuqZMA+Va6vL46uv7670cG9sBp0wibMY1tI1D2itR0OzC50tMD87gxSYM/WrOnkDJjA/nI6xj5iR/HJ29jP5U+ung0Ovy3NkWweWnuGgF2/+3Z0/Sxt0QkDZrvV2ONgPBMKzJkiRGxMjzlKHj6t3GB9S8Yt+1gb6+uPzgeJTiVyv7Lvuo1z3bbz+kwkiEgdmG4fLt5+PapawR9akvG1cuKilQmcGjneo2nFcb9eLyMThLKA/odtNpsNwQvs0+pqJdxOnYrP7In15Kt41efbdsVpTP8roM31iTWW4rd9O11fr1SCPhk2rTvADo8+bPx5bQCLrmF5e3/xWVEYMPuoNxKzgJG2X85emKVe3ch6iPEWMp6gFO5pb1/dQCH5rPL26/XGnpW+Q4H1rwIdTIwEZu6juA9gmUuAjTnExGZ7+A7RlzdkwHKqqqZWP7zVgX396eLw+h8XP1hFGtaVofDALvtbf13zkEBgjHwi3QewWdp13on+9ZNhrv7g3iC6thOjvX174386sK9vTt8dpoHPw3zAGFe/9MjrYCHAGF4Z5qUFA8vsPbFqPfbnnKUzBE+uAODSQkzpkuA+E9hu5vDt9dfr6/9sVB03jQBmHpWE4nFLAd4JRQgwhgdAaQ1ro3ywxQN2M9up7l3avZxYD3hqAi7TVf+9s8zOjq8H1lkvXCkBcLmXru5kIrbpWG0xu9sfNp4dbXww3RsJmNy0VFKQBYjNXKs20m1rqICAveL/zE6dO7E1X3liXKwEGfCNkq++fCmFd6q6thO7zg7qZQMWAZ6gTz3bwVuogXtrC2/+4vm9tNCP99J7L7D+bWSqc5FXnHjK7Ly/a8oXKvBbtJAFFZyFAB2mEnUDT7xSWObCLv2IN51PPH1b3Slh8zFUdvjXxcwH1i5F8QoDBj+IHywY2DRg5tCWs/OJVTnfvzsVep8XGPallFacL8qyib8jV7YfvOTXxqJ9J+dv8OyJsqyqvNeCgGG/J8Am2ZwcusUuJfNZj6PpN5SmuV+waVLQmQCirOZKg0n4x5qPm8oFu3dEJxnq4RYXdSKggC3iEVYr5lu7vbKy0oZmu0HqpTMROrvTKQrwm//7zhXouXta7vGT2rs3juidPtTzhrqCu3p7n5+1slvdMa16ln2Ib7Bo1tmxe+Zwz29JwIfDwRIeZ1gfFwrjECvof1V0b2ON/ya12JbDx4LlO4eiTj7zNnjd/wGDuGDhxIcLbKQEqrd7MBFTNA8WWP5HBQDSjUWP2YiA5Wv29DBLOS+mP5pnNfxsrlKbSYxsGv19Ev6DMJmQFsenEljEwCY5MYlGazqizjNZTHyLIvs/5/IkDpHASrQAAAAASUVORK5CYII=;" parent="2QsRzNsaBDCovpPSGi35-1" vertex="1">
          <mxGeometry x="512" y="236.5" width="64" height="34" as="geometry"/>
        </mxCell>
        <mxCell id="HoTEYSFRrKAqflaEo-hg-11" style="edgeStyle=orthogonalEdgeStyle;rounded=0;orthogonalLoop=1;jettySize=auto;html=1;exitX=0;exitY=0.5;exitDx=0;exitDy=0;entryX=0;entryY=0.5;entryDx=0;entryDy=0;" parent="2QsRzNsaBDCovpPSGi35-1" source="HoTEYSFRrKAqflaEo-hg-13" target="HoTEYSFRrKAqflaEo-hg-6" edge="1">
          <mxGeometry relative="1" as="geometry">
            <mxPoint x="292" y="333.71428571428567" as="targetPoint"/>
          </mxGeometry>
        </mxCell>
        <mxCell id="HoTEYSFRrKAqflaEo-hg-12" style="edgeStyle=orthogonalEdgeStyle;rounded=0;orthogonalLoop=1;jettySize=auto;html=1;exitX=1;exitY=0.5;exitDx=0;exitDy=0;" parent="2QsRzNsaBDCovpPSGi35-1" source="HoTEYSFRrKAqflaEo-hg-13" target="HoTEYSFRrKAqflaEo-hg-16" edge="1">
          <mxGeometry relative="1" as="geometry"/>
        </mxCell>
        <mxCell id="HoTEYSFRrKAqflaEo-hg-13" value="&lt;font style=&quot;font-size: 10px&quot;&gt;Atualiza dashboards&lt;br&gt;&lt;/font&gt;" style="rounded=0;whiteSpace=wrap;html=1;" parent="2QsRzNsaBDCovpPSGi35-1" vertex="1">
          <mxGeometry x="392.5" y="305" width="100" height="57" as="geometry"/>
        </mxCell>
        <mxCell id="HoTEYSFRrKAqflaEo-hg-14" style="edgeStyle=orthogonalEdgeStyle;rounded=0;orthogonalLoop=1;jettySize=auto;html=1;exitX=0;exitY=0.5;exitDx=0;exitDy=0;entryX=1;entryY=0.5;entryDx=0;entryDy=0;" parent="2QsRzNsaBDCovpPSGi35-1" source="HoTEYSFRrKAqflaEo-hg-15" target="HoTEYSFRrKAqflaEo-hg-6" edge="1">
          <mxGeometry relative="1" as="geometry"/>
        </mxCell>
        <mxCell id="HoTEYSFRrKAqflaEo-hg-15" value="" style="shape=image;verticalLabelPosition=bottom;labelBackgroundColor=#ffffff;verticalAlign=top;aspect=fixed;imageAspect=0;image=data:image/png,iVBORw0KGgoAAAANSUhEUgAAAMgAAADICAYAAACtWK6eAAAAAXNSR0IArs4c6QAAAARnQU1BAACxjwv8YQUAAAAJcEhZcwAACxIAAAsSAdLdfvwAABv7SURBVHhe7Z3bjxzVncfzD+zrPu3TPuzDPuQhysMqUrRSpGi1WkURq1XEKkqUiIisNlEWJZsVsBBYbgkGczXBXA2BBS9gnJiruQQbG2zjAAbjy1w8Y894POOxx+MZ22N7fKntT9V0aBff7qquU6cu3b+f9BHWj+lT1dV1qs75Xb/0pav3BIZhtEEqDcOIkErDMCKk0jCMCKk0DCNCKg3DiJBKwzAipNIwjAipNAwjQioNw4iQSsMwIqTSMIwIqTQMI0IqDcOIkErDMCKk0jCMCKk0DCNCKo3c+Zvr9wbfuXMo+OWjo8Gy1WPBY69MBGs2TAXrtx0J3v14Jti++3jwyeBcsGvkRLBn9ESwd3/EntH5UMf/4282Nv729a1Hws8yBmP95yOjwb/cMRT89XV75bENB6TSyMxXbxwIrnpoJPjt7w8Gr7w/HXy093gwOnEqmDl+Nlg4cz64cOFikLcw5sLpc+ExRhrH+tOe48HL700HD6w9GPxs5UjwlRts4mRGKo3UXLliX7By3UTwzoczwdDYyeD4icXg/PkLS7du+XKucS6z82eDwca5vb39aDhpfnjfsPwuhkAqjbb8611D4YR479NjwaEjp4PFc9WZDGllcfFCcPDwQrD5k2PhhPnnxvJMfVejgVQal8C+Yd3m6WDfwZPBmcbN1WtyqrE84w2zduPh4D8ay0N1DfoWqTSCXzwyEry25Uj4pPWxb6iqsDw8MHkqfCD85MF98tr0FVLZp1y2bCh49s3JcKN7/kLvvSm6FZaPvFmeeO1Q8I+/HpTXrOeRyj7j5qcPhJafkwvnlm4Nk7jMn1oM3m/su65dNSqvYc8ilX3A3/5qb+hHwARrkl5Ybg4eOBGasf/yWn1tewqp7GG+cctA8MI7U8HhmTNLP7lJVpmYPh08vX6yt/0sUtmDMDHWbTocHJs7u/TzmuQlPGyefWsy+HLjrayufa2Ryh6CpdRzf5yyiVGAMFF+9/oh+TvUFqnsER59eSKYmjm99POZFCWYie9+YVz+JrVDKmvOdU/sDzeSJuXKzuH5+vtSpLKmYKsn2pX4I5NqCJEHr245Ei511W9WeaSyhqxcdzCMZjWpphC3dvvqMfnbVRqprBHkQRBSblIP2bRjJvjaTQPyt6wkUlkTiEQllNukXoLhhOgF9ZtWDqmsONjbCdU2qa8Q68beRP2+lUIqK8zPHx4JI2xNekMGDpwIvnt3hRO4pLKiEDtF2qpJbwlZmHf8X0U38FJZQf74p6NLl7P+QsDf6cZEx7s/Mb0QJmJ9tm8++HDP8WDLzmONjeyx0FwN/Hvrztnw//E3/C0xUHwWE2qv5KrwPdZsOCx/+1KRygrxzVsHw8oedRR+9Nn5xfCm5sYnSPK+F8fDKiSkuVLgQX3nNPBZLHhkO97fGJOba+tns2Euy1zjiVzXibOt8R3+6r8r5DORyorwo/v3hfbzuggJRjzdyZsgyYisxL/7n+JNmphRr358NIy03bZrNphsXMNzNcqdp/jFt35TkQQtqawAN/xufzB3cnHpklVXWD9Ts4qb8ccrqhtW8dMHR8JsSZZpJ05VPzGMwMdKXE+pLBkC3apcHIFJwZP53jXjwd/f7P6GYEnx9cY43759MLh8+VDw/XuGw9I8VzTeoPybSiosyVhu5hFSTkgOCU84WKs8WVieMrHVdygMqSwRQkaqGEt1dvF8uBd65KWJMLdEnXsnuPGvf3J/aImjqBsbb8Ybn1oIpo+dCScdKb88GDgWy7UmZ86eDyuP8EY9evxsuOxkGcLG/a3tR4P/fWMyuO2ZA8EP7h3uuroiS5knXz8UBndW8brzfXkwqHMvBKksCdbtFy9Wa3OJp56bsJvXPSVGMVu+tHk6+HRoLlwuFGGeZmIdnT0Tli6lpClvuG58DPiYKINatbfK9t2z8nwLQSpL4Kn1h5YuRzWEje0zjTV7miXUP9w2GCx/bjysXEiOO0/7qgjm5LHJhWDDhzPBnY1Jm+btx1uFGllMtioIFjkmrzpX70hlwfDmqIqwfFn16qHEpQpvCZYmO4fnwoofdRGWaTsG54KHGktZJrb6bk0wJZNKe6SxBCxbeLOpc/SOVBYIe44q2Oy5CbBEdbLBs5F+uLEHodo6xaLrLkwW/A63NvYv6vs2oSgDfhb8K2XJ1NHTwV9co8/PK1JZECxLyrbPsxxir9DJX8HrneLUvZzXPn54Iczd71QgDisbEQ3U9i1aMF7gGFXn5RWpLAC8yWWbcj8emAtNqer8AHMzG95+qrKINQ2jBBYxdU2ABwa9S4oUfoNS9iFS6Rls+WXWpWLzuWLtQXluwDKKwgP9LLxZN340E/ph1DUC9mDzBTlz+2qCrH338NLXLl4IA2lnyaGtwdiUhdK3ChOFjlbtNvT4dzBl+xZWG6W0aZBKj9CKrIy1PBtMMhDVOZHdNjx+cukvTZTwm2HEUNcPMIljUvYlmN37YpO+/Pmxpa9cnJCUQ7hG/Fy+d/dw6ISqmnOyykJk8jWP6wLWLIF8JbMR+q+O6R2p9MgbHxxZ+srFCBtOdR6r356sRdBeFYXwF5ZdyiTO/pKHTp7C/qO0mCyp9Ag3bBFC/BJxU/Hj//tv91lRuZyEODLC6uPXGMh9ycu/xb5RHaMQpNIjRbxBjs2fDasrxo/NGrpKYSC9IMR/4T+JX2sgOcz1emPtzCNiOjNS6RHfbxBSWNlbtB6TBCIa5Jj4E0LnVb0rMh6zGmUoBEjSXHzMQpFKj+C19iVsIOOh0TSlnDxqvUCKEB5Oaq/AA4tWbt0Iy+BKVDuRSo9g6fARezWw/8QXcrzJ1T5lbdUKFa43UcOtv0MTlrhJKdSkLFeqhYJUemb/oXy91ISD4F9pPQbr4roWLqi7EF/X6SYncWzNhqmw1/z23ceD9z6JClqofWPpSKVn8vSF4OOITw6ShUzKFyZB6+9SS6SyAPIoOE2Jm3h/PIojm1RH7nq+5o10pLIACC93WWrhsY3HB/HKNqmWEB1cqpnWFaksCC4c+4duhYIF/xSrm0QoQl2E/HQKNWDZoToKXmn2TLSMI4982eqx4NfPHAghtx1jw+OvToTrdMzkmKx5e2IGLSM3o1tZt3n6kt+qVkhlwbBW5UmTJIRW06k2HrTm03TsKoRJMBlYUjIJCIwkLiyPwDu6NuEnYBlDpXRyNKpYS4zv3221lcoglSWA/4Lc9GYVEH5oJgT/Ju8bE6HKdisj+DFJ8B5T0ocJgR+myIb7XEfeOrxRy8y5aZVSiy64IpUlw9OVH5o9RqcnLRt06iZVQTBt4twiiaiU1FABE/OWxhsLM2qaN7RPYfmozrHySGVNqEKpIG488tWvarwp1DlWBfZ7FJgrq7dKbU2+UlkTykxyIm2XSh9JpXOS4C1IKAZOMpaLPGm5kVmeAfV0V716KNy83/jU/nDPQXUVNVZaKDt6YLLYiYKBQZ1L5ZHKGoAVq4zIXOrFMjGyVG0nf4I9CXstWsgxwQnkIyI2rZCLQXYkOfN4oZlEeKaznA+Tsah9CunM6hwqj1TWAKJEi8wEZI9BEYNuy/IT4XrPC+NhTgM3o68KKYT4U6WFt003eyDeYFjAyJ/xJefPXwj+7YHqVr7viFTWANojFCWUE712lU4MagfmXCZFGV14ebPSkoF8jHgYTjvYQ+Ff8iHse0rJJ88DqawB3LC+hScfldjV8RXY+lm2MKGqIry1XtyYfq/E9+V75ymdij1UHqmsATjbfC4LMB+n7eXN05F9BZU3qirsW7j502zwKUWaV+UZcnFq6yQEqawJ5A74EDzSaWswkftA9fS6COEpafItKM5NApqL8ACjgqYavzZIZU14rbG5zFuIjVLHinPZsqHcq3cUKVjQkm5eQlmyRl1jmaN0qxq3VkhlTeApl2d9Xxx+6jhxMFli7q278IT//bvJrZexcmFeTissNX/1ZAWTn7IglTWCDWge0q5+Viv4MfBf9JrsHplPNF/ztqHlWyffE0GJTLh4jk6tkcqaQTCji9CsX43bCkYB1zV5lYW9CQ5H9d1bwcdCCVc2/ARE0g4BZyVm91pvxtshlTWDtXLWSZJmcvD05AbqdWHJRRiKugZ9i1TWFBJz0oafEGSYxppD0lIZIS1lCdEJmKzVtehLpLLG0PiF6o1sFOMxTmzoMcn+YdPhsFuS+nwrmHC7iZPqFcFRWMkKI2UglT3ClSv2hf3Dybi76an9X6i42AmchP04OZpCT8C0YSo9jVR6hGjWqifxU+Capv79LgQ+quvTV0ilR8hrqErGnYKnZllJRVUTCkOoa9RXSKVHSAHtNmS8SDBZmkSCVavKD7NCkEqPECxXVXs551WFpvlVkqQe6j2PVPYphEeYXCp97xeRyj4lr7CVXpJO7bL7AqnsU8qu60v9KNoH4LXHzDrZ4MjsmbCXYjfBgnlK3/tDpLJP2fpZseHr5KePH14INnw4Ezy07mAY0kJxPCxpzRRV9kWYxX/y4L4wfJwypcSEFeGjwdQdb0jUd0hln0K4exFCth7efpdqg1fcvy9cEiY1pHER4tvUsfsKqexTqEflU4j/4qb+xi35OUqpnkgevI82c0QhqGP2FVLZp+BB91WWhwonPv0/RDS/8v50bnuVXfvm5XH6DqnsY/Ae5ylssIs0lV7z+Gi4wXcR3nSkFKvx+w6p7GOI4M1LyLAro2AaJX6y9F1BmBy/eKSmldh9IJV9Th491Qm3T1sZxRdk+3VT44pCDqQLqLH6Fqnsc6hzS+3brMKboyoxTPgxKEnaLumLPReFrOlgpT7f90ilEdr/qY/VrdB3kfx1NWaZMGEpRbr23cNhgQo29ISzk36g/t5YQiqNP0Mld9blSYJTDSdeTxYu6Gek0rgEWi08+9ZksGtkPoz2ZTIA5UnZDDOJLl+e31sDPwkm4Vp3h+0VpNJoC445rESEhOT5tlj+3HjYxppkLd5YxGTxX0JRqMV1++ox+TnDM1JpFAZVU9IaBPDR0GVKjWN4QiqNQqCkJxG83Qh/v3ZjcrlQIyek0vAOPgoXwSCgxjVyRioNr1CYLQ955CXzXXhHKg1v4F3Pq1IjcV5Y2NRxjJyQSsMbb293W1rFxZZanpFKwwtfvXEg96ae+GKsAqJHpNLwgq/OvP/1WM3bnFUZqTS84Ctj0aqxe0QqDS8QIOhD0rRRMzIilYYX6MrkQ4jQVcczckAqDS88tT4f/0dcHnvF/CHekErDC9euGl26pfMTQk8sRdYjUml4AXMsZtk8hexFuu+q4xk5IJWGN17bcmTp1s5H1m2y/YdXpNLwBnkkhIjkIbPzi5ZU5RupNLxCnaw8hFq9anwjR6TS8M5Lm91MvpQwVeMaOSOVRiHQ7m1xsbtSobRFe+bNSTme4QGpNArj6sdHw/JCSZmF1K/aNXLCTLpFI5VG4TBR3th2JBgaOxkVbTgdFW0YOHAiTM2ld4j6nOEZqTRKhbI/FHozC1UFkErDMCKk0jCMCKmsCBSR/v49w8EvHx0Nbnpqf7D8+bEv8tx4mIhED7+snZtoPvPD+4bDWCkKtMWPQUuE5jHyXvbQi7AVzuXLS/D9WWoBueyc408fHAnPA/g314fv7TPchPP69u2Dfz4m0GzoO3cOhVDHmPPm79p9nv+Pk5Tv8r27P/8ezbH4fnxn9flSkcqS4Aal5tOOwbmwwuD8ycXQrJmmdhSdlfBQU6mckjo0klHHaMKPSslQLEikwXKcJGkeY6xxjI0fzbQt4saNvGbDVPDR3uPBYGPTTWE4ilq3MjpxKpiYXggOz5y5BLzjc43NOfD9FxqbdWDTzjmea5wD5wH8Gx3nRDfcgcZ32fjxTPDA2oO5NMDhobRt12x4Xhy/eczmOSycOR9CGVauIX/H78Z3a35Heiiix+DA3/Fdzix+Pkbzv02jBNf2g8YxiXxmIqnzKhSpLBjs+hPT+TajZFJxE6unGqbSo40bKg/hx+Tp2Bz7ydcPhTdN2ULpUh40v3k2W59BikGULacb15FeLVeVWYFeKguCIga7R+aXLocf4YZtPSYThjbKecrqtyPHHa0E0rztihYKbLOUab0Onbj1mQNLn6yG4Exdt3lanqt3pLIgsO/7FpY5rcdkD8GrPk+h6DRj+8oYzENY1jy9Pp0H3rXqoy+hn7w6X69IZUGwZvYtOwYu7fXNW4u1bp5CQxrGpgp71YVw+9broWAfU1WhDYU6Z29IZUGwRvYtKl87zxuZDSZWNsZl018HaS4J25FnI9O8hX0JljN13l6QyoK4/8XxrppMdiPcuFs/m5WmQzbVhHW4ZPexEaeX+M1Pf74JZvn2SWPSn/P0nfISzo/QltZrEoffhu+Xx9sWSxuVV7BMbWv8Jq7XJ81bMDekskAoerbe8WaNy/bd6SwfTJ57XhgPjs11d+x3G0uQTn0IsZKx98lDjs2fDa8PhRmefycyHfMUdRUa89AMSJ1/K0x613KpLNlaxySPBfNuVpk8erqtzyV3pLIE8EuQX+0qWawdNLFJa336cM+lm/5ODB5w22MxOXCsxcel9zr+Ald5OGV1eDpqscnPKstEdywik7MKqwN8TfExvSCVJeFqe+emUeMmwZILx1ySXLx4MXFp0oprmwOSqtS4wE3b7ZsvLjgw1dhx8KJnrUjPzfyj+/d9YUz2hi5SWEs6qSwJvOgu4mLhoDlnkuCx7ibU5A7HzS5vNjVuE3qbuwgTPk1+CU/rs4vZlnU8eLAcxsd0rRFWWLlVqSyJP2zKPkFYInXzdG+FZpxpnsaEhqjPt4M4rqzCzZuUA0KsFuEoLkI5VDV2Kz9/eCSzMYXQEzWm68OQCabGzR2pLAn8CVkFS4lar6eBt8Jcihvt06FLfSpJPPpy9ic8T2y1NInDObkICVpq3FZueTq7Z33n8LwcEyuii/TlBNm6c3bp63cvbGiz9snAQDB/KnmCNB2CaXn2zezV3PH2E/2qxm0Fo4SLsATiTaTGbuJShSVuwWpCDJuLcE5q3NyRypJwictKu+FUXL58KFWAYTyuKwmXUBqWfGlC2OlT6CIsTZPitHAsZhUKU6gxeXNlFZafSdHauSGVJeES0btzuLvlTyuYTbG2JAnh3+rz7XjPwWPPtVBjxsGE6ip4ztXYTVyWvuzD4uNhNXTptEWkMla8+LhekMoS+Dr7AAevLaHtatw0sLlPEvYE3eYn4FXPKsPjyXsDuO4J965V7JXU2E0IOc8ivJ3Y4MfHwznsEvVMNHZ8TG9IZQmQVeYSdtLuVZ6GNOZYljzd7nFGJk4tfbp7YXKpMePkMUGSYrOyLofwnaguvK5Rz4UWzZPKErjr+fGlr59N7l2TvQxnGoceN7v6bDsIhSDLL6u8vxRCn0QeEySpQ1XWCAcyCeMhIYS3uERM8CZnz9g6pleksgRc7OK8rl3qRqUpA7p996z8bDt4crJWzipvfJAuIM/3BGGtnzV/hnSG+HiuDkIsnfExvSKVJUCUZ1Yhz/lbDg3102ymWRaoz7YDy5BL1Co57WrcOIRcuAph+mpsIEuSqo5ZBFNu61gEkLo8NLA0frfoPHWpLAGS/LOKaxOZPaPJ5uVu7e6uN27SxrkJBRpcpVPYhks0AKm+OGFx4FJ3wDWTky7B6hy9IpUFg6PKJe+AyiFq3LRMHe1sXs6yhHNt+YzhQI0bx3XJgpD7ocYGQuyzCv4KQmHyCM9nhaHOzztSWTD4IVwsWJSmUeOmgaVZ0msfa0y3SzjXvG72FmrcOK5tFJBOx6pCGjGZp2lyV7wglQXjasFyqXiBD4QnXSdR1pgkXGKkcFry0FDjxtmy0+0GJs+Dom1qbCiibkAncfFv5YJUFgw+DBdZuS57XE4aEy97FPXZThD5m1W6eWOxvHSRqZnTbZ/O6POqH9atzBw/6/S75oZUFgwprC7SbQhIK5t2JB+7XcBdOygF6tKHkOqKaZySeXTN7RShjL/BJZMwi7AXJYYtaxnZ3JHKgqE4QFZh75J2OaIgyDFJug2t/tnK7KZRJG3O9Y9XuO3dkE4RCDx4ihCsW5SA5W1eWIxVWqSyYFzyq7GQkBKqxk0C82NSTV72J2k3zE1WOJpe08Ya5RHJq2KlmmCazSr4gNi7kanJWwH4N7V6iTPDsEKCHMGWWX+/QpDKAsF/4RJ6QIyUSulMA2vcJOHp1u3r3rVi5GeNN6oaNw43mYvwpupkHaJiZFaZbEwExiZbE18Iwaj8Wx2n0khlgXztpgGn0GeeUlmdhB8PJFuaqFCuPtsJlyheJI3ZmpJFrjWrmMhq7CZ896yS5bpVEqksENfG+rx9sjyZOG6aSh3dZhHy1MQy5CL4UNTYrbj2WseU/IN724dt8NRPk2XZTthTqHFrh1QWCPsAl3YB3ORpUlPjpF0G3ZZQWSQOBeWyVgBpSppwbvqguAjONzVuE/xDLjkbSePXBqksENb3LolSiCpM1gmsXmnMlyz9vnJDd28nOl65SlIV9pXr3DbnWL4IQlRjN3ENlWlWvK89Ulkgrpt0pJvXOW8s9i1phChfNUYn8mg808msjG/CtdTPph3J38u1qEKackK1QCoLhhvcVdLsFYhMTesZxrxLaqgapxMuG9umECCoxibl18VDj2D1S7LKsY9KU0ivk7hkeFYKqSyYdQ4F41oFfwo/zPVP7g+XUeRk0C2JNX23XaWybDKvXJGu+EOSkL3YapmjLBFvFVerFXuKpGqNQDsHl/0HksbQUAuksmDCfHQHz7MSqodnHTOLc5Aib2NT7gWlm0IIPpVayAdPU9QujaRNwtqVQ1s8Yqlcktgqg1SWgGuFwDyFviLqHBVEImOxKTpmqVuhkqE6/yb4o4gAGHCsSN8qLNPIVqRVtTpmLZDKErii8QROCvsoQjAY4PVV5xjHtaphUZKUDsCSiie+L8GMn1R7q7JIZUnQJKZMwTFGoKE6tzh4svNa+vgSHLBpUoVdQ1bSCP1A1LErj1SWCPVsXTeIWYQQ826sVnk4BH0Ky760SxuXaOq0oiqc1AKpLBladPl85ceFjXC362SWYWlCVYoUHix0tUqbz97ENR8njeAfUseuPFJZATBtYip0idNKEiahS9MdntJlCxY39k2kphIeos4zCWKyfGYOYjJPqiBfWaSyQpAvjeMMP0YeliKWReQjEEqRdjPejsuWDYU/flJOO8LfZAUhv4L6XywF8ffQKxGfD5OiU8h6WjDJ4mwlyiAPkzsPNq4N+0p1vNoglRUFTzIlavghMQvTvQjPMD8GiVOtcDPhWOMHZ/1Lai0JRljL1NguYAUiG46+e1QpZB/FjYHlhjbR7G34m6zweZye9AdXba3zhMlGgTc29zhwSTemazCpAdS5wgwM5OnTcRcok8rbnuqYxIldu2o0XAGo8WuHVNYI8rIp80nFPTbOwL+JWcK2rz5jGKmRSsMwIqTSMIwIqTQMI0IqDcOIkErDMCKk0jCMCKk0DCNCKg3DiJBKwzAipNIwjAipNAwjQioNw4iQSsMwIqTSMIwIqTQMI0IqDcOIkErDMCKk0jCMCKk0DCNCKg3DiJBKwzAipNIwjAipNAwjQioNw4iQSsMwGuwJ/h8+1uWmL9XPNAAAAABJRU5ErkJggg==;" parent="2QsRzNsaBDCovpPSGi35-1" vertex="1">
          <mxGeometry x="507.5" y="168" width="32" height="32" as="geometry"/>
        </mxCell>
        <mxCell id="HoTEYSFRrKAqflaEo-hg-16" value="" style="shape=image;verticalLabelPosition=bottom;labelBackgroundColor=#ffffff;verticalAlign=top;aspect=fixed;imageAspect=0;image=data:image/png,iVBORw0KGgoAAAANSUhEUgAAAPAAAADcCAYAAABOOyzfAAAAGXRFWHRTb2Z0d2FyZQBBZG9iZSBJbWFnZVJlYWR5ccllPAAAAyhpVFh0WE1MOmNvbS5hZG9iZS54bXAAAAAAADw/eHBhY2tldCBiZWdpbj0i77u/IiBpZD0iVzVNME1wQ2VoaUh6cmVTek5UY3prYzlkIj8+IDx4OnhtcG1ldGEgeG1sbnM6eD0iYWRvYmU6bnM6bWV0YS8iIHg6eG1wdGs9IkFkb2JlIFhNUCBDb3JlIDUuNi1jMTExIDc5LjE1ODMyNSwgMjAxNS8wOS8xMC0wMToxMDoyMCAgICAgICAgIj4gPHJkZjpSREYgeG1sbnM6cmRmPSJodHRwOi8vd3d3LnczLm9yZy8xOTk5LzAyLzIyLXJkZi1zeW50YXgtbnMjIj4gPHJkZjpEZXNjcmlwdGlvbiByZGY6YWJvdXQ9IiIgeG1sbnM6eG1wPSJodHRwOi8vbnMuYWRvYmUuY29tL3hhcC8xLjAvIiB4bWxuczp4bXBNTT0iaHR0cDovL25zLmFkb2JlLmNvbS94YXAvMS4wL21tLyIgeG1sbnM6c3RSZWY9Imh0dHA6Ly9ucy5hZG9iZS5jb20veGFwLzEuMC9zVHlwZS9SZXNvdXJjZVJlZiMiIHhtcDpDcmVhdG9yVG9vbD0iQWRvYmUgUGhvdG9zaG9wIENDIDIwMTUgKE1hY2ludG9zaCkiIHhtcE1NOkluc3RhbmNlSUQ9InhtcC5paWQ6MTIxQTVGQUU3QUQ0MTFFNzgyNUVBNzg3Q0VFMTlFNDgiIHhtcE1NOkRvY3VtZW50SUQ9InhtcC5kaWQ6MTIxQTVGQUY3QUQ0MTFFNzgyNUVBNzg3Q0VFMTlFNDgiPiA8eG1wTU06RGVyaXZlZEZyb20gc3RSZWY6aW5zdGFuY2VJRD0ieG1wLmlpZDoxMjFBNUZBQzdBRDQxMUU3ODI1RUE3ODdDRUUxOUU0OCIgc3RSZWY6ZG9jdW1lbnRJRD0ieG1wLmRpZDoxMjFBNUZBRDdBRDQxMUU3ODI1RUE3ODdDRUUxOUU0OCIvPiA8L3JkZjpEZXNjcmlwdGlvbj4gPC9yZGY6UkRGPiA8L3g6eG1wbWV0YT4gPD94cGFja2V0IGVuZD0iciI/PkZDWlkAACMpSURBVHja7F0JuBTVlT63+y3s4AKCAuKGinFBUTGu44Yad2OiEvdloiau0WQ0iyZOMmbGIRojiVHjvkQzxmXiLioaNUF03IJLFBRFEZBFkLd015xTdfp1vX63qqu6q/p1w/9/3+E96lXdqrp1/3vOPffcc43jOAQAQGPCgMAAAAIDAAACAwAAAgMACAwAAAgMAAAIDAAACAwAIDAAACAwAAAgMACAwAAAgMAAAIDAAACAwAAAAgMAAAIDAAACAwAAAgMACAwAAAgMAAAIDAAgMAAAIDAAACAwAAAgMACAwAAAgMANjyWTN2/Exx7DciPL+iwXsdxRrw86+LZ/oJHFQAZVsMpjb5bpLLsrkW9nuZZlAKoGBAbqG0eyPMoysuT4qSwPsqyNKgKBgfrEZDWVTcDfRSPfw7IWqgoEBuoLE1mmsmTLnCckvh7VBQID9YMBSt6BEc8/hOV8VBsIDNQHLmPZJuY1P2bZEFUHAgO9iwksZ1Vw3SCWc1F9IDDQu/geBTutyuEklvVQhSAw0DsYy3JQFdf3YzmFZShLM6qzMdCEKlhlcLSSsBpcwHI4ywKWV1heY5nGMifkmm1Z9mAZzTLKpxRmsfwbPgsIDARjDMuB5EVb7ZxAef1ZttLf99SfQt63yQsIuZllvh4X7/WZSuCgueRHtQMAQGDAN+wRsp7Osi+lH4ixvso+5Dm6JIJrOMv+EUzto0FgEBgoYnuW81iO6qX7r8tyWozz91KzfgU+HQjcyBiipqloso1Z1iAvPrmdvGipL1k+ZPmM5T2WmSxzfdeP0vHkqQ32zcSrLVFhT6IJgMCNBomEEofQfkreMRTdySQkfoPlIZaVLD9i2aAB66CVZXMQGARuJBjVlqdTz1VAUbGhykGrQH30RZNID5gHTqfBHlIFeVc1dKIKQOBGQxuqoAtZVAEI3GhAnqJiPcxGNWAMDFSHHMtClnlKqCf0p398mmdpYdlEteamLNuxDGZZs4rOXoYTf8InAIEbBUaJ0NuQiKn3Wf7G8gzL00rifEzzdxh5oZK7KaHFo94aoy6OZVnEcg6aBgjcCJC53U968f5C1MdY7icvlrlazS1a+w4qZrKUsM3DyPOQj4pYztksH7P8Es0DBK53dLC8W+N7ila9lbyMk9O0E0kLj6tMUfNYIsPWjXDd5WoR3I0mkhzgxEoHc2t4rxdYdmI5nuWRlMnrh3RSV7DswPIDliURrrmavGg0AASua7xZo/tcx3KAjnMrg6P62ybRfOkfqXbdleWuMufKeHoq2h0IXO+Q7QU+SLF8mWc+VeXz2Ma2X6QFtDp2aXa6EzwcMt6WRRaS0mdlyHmyiuk4171lEwBj4DoxoV/kBjk6hbLbmVSS8zna1IzTvbs2/fLd/yZ+5qwTfG3WdBHLWZkplhdMtl+zvM7yRz4nKHH8z1gept519kEDr5YwkeXhGOdGFfEKnxSLvBnvWtMvR2ZAztOsLSryu5A3zIRuLp4v5DcD8t7/HSpKT0zje36TJLOH/T1GspxHGb64VAAQON0ac6LKY2SchSyUoFzAhLmtDHk88nUyU1rzlBnSQZnBnR5ZM078ca7fhM56ZZg+TOSBOY/IUmbO2Mp5kp/3GJblAe9yqkvkjLbCDFojCFxfGvhDrt0HejTQSsXQTSxTPJPXJ6UQMjUxyQZ1UkZIZvR6h6oP8PSXIVp9gKfVTd988d7dwZ0YHcjPuczyTkP4bxcY6RB8AsRsjtheNB6WnrRpnNPHs7yUgHtmFjlmeybPF93Gn8wbp9MUycUEMmzymrXbPe9Gu1Eta8jp0toWbelE6LRs/xfCCZGb8uS0MytZnBWZLrPd1bQy7s44u/P/ZW1z6dJCCRLZkrwIMReDbngLjQwauG7wMjfcaxLQvhKG+EWQJiz8zKzVQWZYu6uBXfLWAoWOg811w6a6a1oXTOricz7Nz3eu5d1G8PGjMQauHPBCV2JCxzv/ctZE4jUeUtG9HPozSYBGgKfYqBntOpdaC9M+pnBtOUhQxRiWcfpTslJ2qnH+mWpICdB4h7zpqjmBpSppXUeZnLQ86++ARH7H9SBx1GeUvKNEc11D8WK0ARC4QmRjagmHx8KifYzbSONmp1jBzfqCUCKKido/73mLc5HKlEQDEs8sixMkJe3QiJ2S5Ip+iuU58uKtXw7Uxq6Di5+pLVMcf3uQPZj24PuN8121E/9fUtPOQOMCgdNXwNkKzDyHnuOhZ2cF193MujA4rtpdAKjTPOXJK53HuVzo8UyqsRW8uszpft0VhxaTt7ewbE36gu25TKtnPzttxm+1LOR7n8ma+C++zqw//30CCIwxcI00cEUyyWRooHEdOhHFMzunBJYpX66FT4lG3l25vOks/84m99hYz2GTLA1hOYXLe5jlLubpxta7ihbOOt0l4zzF19xZ8q7by/saRGKBwLXx2sQU4+wdO2gjQ48wSd4OJVJzvvwXNHSW6wE2tJ1vPJqUDGb5Bst08vZV6l5NQso+TjdHm+Jy/n1psRxnB5YhrtcaAIFTr7F4MoplpxgBIDo949wVGNBBBW1W1lF1IRPkSi6vf+z7xxIazvf5Pd/vD93G+Y76DJqd0jp5i6+723f9Ju68MFojCJx+jcVu4FtyLQ+LSfpPWR4P0c4eMUJNTudC1wOeVCBJtOmuE8hb0riRn8RGAktkmomf2RRMaUM/52tW6LWtLFugNcKJVQMvVuwrdq7ANJSMGh+GPkN4ZNXhPE6+PGLolYygJZH8Ai1ZcmDJmLbSLUZlWaEEbUwibwF/8TG6z/PKPa/VOW45ZxM0LhC4Pohturm8tqygtJmB3DPkhRwGc3MdxzFXlClfsob8leV/SBYeOG5n0dHVJoy7YdoW5G2etgvLNjGfX8h4pTHO17kG2skX7ed0dlOzv3fH6KKDDa2DRgQCp8/TvrnubHJ8473Cz3wXgyW53VYxb7GM5dmynYUJ9LH9gokzJsQH9wo/4iXkmPtC7rBENeQD7u2MI6bxOXzPrWO8h+TM+i3J6infs5ZMw0mAyFPkbWU6gqKGnwAYA1dMYAkXLMignBu0YPp7Af2ux7VFHU3e+HekOrHijCVns7waPM4MXa3E5jqdGFL2Nfx3CeC4L+Zr3+hel6HLWHIx3uVE1r4n9vAhFMfzHSyP6LkbsKA9gsApQ7Rrl1D3ZXkF3SFe16zbQDdiUmViLhmUFKzBOztkQ51IP1IPdnfxjklGyDNVw1eCpSSbrBn6Gpf3sfU+NsnQ1C4HVZd0c/JN15/DWbCLAwhcB/DIO4Jr95gKvLmv9Ah+8EvwnOw2fO2eAcS+k+X7iSwpFC+zoYNZ5kZ8H/EwX9ztWPdOSBZ8zGYZy9KCxgMC9z4cGfc5L3HtHlvBVMybgSQNI3bGOZivb7aU+Rlfe5E3/eREmH4q+24iL3EZx/imgcq8kyMrjrbvPs/d9V4rWX6lGUywERoI3KsYbgzdznK9ydCI0sXqkSTrOIX50h4SHt64u608Jo+sAnrfJU2TL41OroK3E8I1OQUNKqbv2RTpvdwwyR92/e4+b95val9JXrK7lWhC8QAvdHLYkRuiZM3YtIoypAFXkhReFhqsb9Gsi0yepvQ4LjO82Rw5K7PRTeq8mr5N3aawrjPG2Z/LPzxCCQezTOCLZ3SpDiwghAauE4j39z6XvNXFFotXdkEF141iWcNyXFLaLCo97mrzFg1vtOez6ql5s2Sf5JGIKsNHoz3n8X4z2o3lBqCBexmbccO8I6FAhKQ3Rns0rIvODOh0U8W6Imt3CxFjeo2EQLrJ8WSqrK8TpDFfcsevnglcDpNU/3cUWp/JO+R0GOSEBoF7BWK63uNqwGTiD6SQzgqvsz3A9NCrspqYrl+uJ4EcQ/nPm7wMG82FsWqhjyntdpx7IhJYMoDsRV5O6GILlI4hRyAxCFxjGOdqypgtEiyxDzNHIpL+L1hBB/7B9sfl4eNa4zqTzNAObwF+IatknrpySTvtWnQhCby9o5LIMUlMt1aZ92PrwpnYjcDueuaMp+lBYBA4dc6qE8fJG4kw+mbCa1jFvFw3XNHGeNZMyIIEIamsEpKc0aZk1wVNCC/a11nYpP8Pvffb7lxueQK74/XShfuSZ9r1joPAIHD6DHZlCP+4KKXyR4SSzo6P+DpJc7NmyXFZVTTH2g806bSSIX/sdvdzjOOGizpfZLsW6Ac+tqF33KQB5bGuzZSHSxoEriUu4sa9cUoEHh+qieyKcD5fI5upbVhy/Kt8/IkeZ2e8bVJc4oTxxjFqWvNJK409kXzxuRZGfMNWNJ/kgGmk2DXmrMek+E6Ki+K3ZVnTHokVet2zluNHszSVnFecQoqi9CTeolmzaoSnAMpEfEcn9O8ACJyyCT2ZSdw3xRQ1G7DsERo2aZc7+boVJWVtzpbCQSSOqmaWlrybGaNrQ7Mo6DK3yb/KKj0BQOCUCXxuCrsOlu6Ru0/oGJys173B8mfL8ctcszVyKp4ALdySL2cBjIj4fqbMuwMgcIrI0pIa5Jc6gLXRCKuGKsQi20n8U752UUlZ4/j4vaxJm6pdjRQS75zl+4yJ+G45mNAgcC8qYOdobrCLK1qoEF1GmwwdHrx4IfC6t1i+b1lMsD9/6Vup8jxXXc6vAM05ju8zJuK7zTOZvLshmk0AEDhtyPrVg7gxz051LGicb/PPfpbjxZSyhsiS6/k6Pu93lutkzvoZPmN3CvcnSyn9AqyP4vSTX7KOpM0dEvHdpDM5LdAcB0DgGuBZXdT+Wopj4a+wfCsgi0VxVZBtq1BD32a52VLmRHeBA7kbph1G3qZmo1lGkZfE7lCW28nbLuUSij7NuFeM91rb3ejMoW9YhwFAPIsQ+wPHw5e/XrdIKFnAkHE3LTs8pVRsC/gLbcE0mm/830l+7ettHuYsbSokR/dpyi5T93tumh2HBgWUL3HXn2qJI0v+9rASus3qRCtiDF/9Iv8cFvPdFro5vCTJuw99T/kEjQwauGbgxu8cwfJdJtHSFExp0VZTrVM+4hmWZHqyJ7CEIuas6uu/+Nn24nKuYnEs5Te589pu8r1ux//I5Dqepa1Hbq2eIksEh1Xwbmvxu/0GTQgauDc1cNfcpcm4Ju+F/Ovk5DtG5zj+55ZuGrjV0QCLvEtmZ1ELOV9mvOfpFnThaWfjbeF5ALmL6t30sKVxy4V0tnc6eddrXbwXaTBH6VYuDg1nmSW5OqtogbLVaVe0WJ+TPkUjA4F7hcAFwkg+5LP59x3554CEbsvmJk3SPFtd9zWF+2t3kV/M5nRh9VBTgXldBPa7ovpbxreyoE8yTzqOP8umhFMO6ORiDDmlK4YckgTy51X5bg+oqe7aGX1OBIFB4N4lcGFwspurjb29b7dNYIz8Lpe9i+6b5C008N2/4CGWxfHOgmZvgUKTYyNweX3flSrX26zbtOa8Bf8FM91xlxeK5nyQqo9tXqG5ql9yCXw8CBwHWMyQHp7xxBEH0s7uDnzkbqx9ZAUOH4Esnrif5RCWnp4eNxWA8TYSW7ud8gtbvDW2TTF7jsLOEtyxm4GdXiYO7hSM5rp2vMX3I/m8myiZhQn9mMA7FAgMgMD1BjFLH1Ihdy9dydNcGaShS5aNE1ies57hkjZPmbU7XKNY9iJyVmSKmtNvChS0shwv7LfEY+rMoJx3rImK2SuL2x03u9NAJmzdcmx8lWUqmgoIXN/wuHMXZd29hvarsBTRxH9iOVXHjyWDIiqaz6w1JeeU7OfkrGD12eHLe1XyXKZ/Z3FuOaNszWV6thdD13MZByRcL18Q9kUCgesehcyOhs433q5/lTq5JIGe7G8kCxX+wx1HliLvU7GaXcNVp6ZHh9L996AF/l4+q1/xWPrQBGtEtpG5im/9c74/yFsBMA9cQ+3rjk+bXOfTm6zlzq9yjtiw/Igk8yTREWU1fxzpCfGsP8n3OzSh+e3lLFdyZyGrri6l4tamADRwHZvP3clxbZenujrsrPKQjiPlZ1JblIjT7Sf8nEdV0dnLs0i2jrkk24k69BSLzDe/gUYBAjcGShcdFK3bM3RTr+0TuIukdd2be4k3+ee9Ok7+WM3UOJCcXJLb6gR+rj3dhPGVYxaTdRLLl+TtOrGckPwq2aaFeeB4iDEPrJrX249I9g8OaLpjNG/Vhik8rqSnlYUXz/PPeSyy0dknXTaB4wZ0SCK8gfz75vxTUr6KWbteAvfOu3PFeTMt0BLx5pPdKioc6zP5MzQyaOA6QV7zKRc6SXtfKRt6n2aMI3O8/RJ+gq1VztT/L3HvV/D4GneRg8xJ909yJZC+5nn8yzTPKaZ1gdVGIHDDENdNydrRtTLIiAc6eBVu+F+Tw2AldMpmHd3IfdaVXVuidoC5IHAjQEINxXQWT3P/Tm/qximaiiEqa19u9qtGulWH7uZ/Ty5dDAGAwPXaYL3oJ5lrlVzLfXKseTs90uYiaR5J8jZuFWnpM1xz3TFwVIHAdQolq7e0zniEHdrurtZxiZvVCCZ3DW0kAssYdIOG78Rke1VHyEvwQoHA9YvM6JXF6SDRMxKuOEA1rpC7EFcc3X4cQpRoXHFvYCq/93f5dXNoISBwXcOs2dkzBLGzsKFuVTqsESHzuhINNgWzuyBwYxDYpmOq21HAaWAC3+vkzZQeoZiF9cSFTi1nym6OBoDANWJwKiU2atNuMjzmd3TarIvATb5FT/JmLTlylmfhkQaB62EQnHgrlFjh9gatjfe9OW4nvIOTEUZznpzFzSAxCNzbBE68RPHaytagQ6soQxb5S8zyRix9a1gbz0c6K+9NsRnTSfnPm0BiEHiVIrBk7JhNFGlz7FJ8yHIVE0SSy2VZ++3MspeWJet3hymx0/jOX/B9Z0Q+W8xsSYPbaciZz5q4FV4vELhXxsCpqI8ZTLwjYmlth27mn1eTY2b7TPGnXfGeUTSxZO8YpTKQSqervFSzu1f4zPewSp0Xu/okh/XaHeR8mcUqYBC4F/ibzh62MyO6sV5kwko+rcccp+x6WlnC95qK/V0MtTDZJbfWhNhP7JibKurM+ubdgJf8nD7kdGbd/F0ACNzIJrQ3hjXufkTjyRshymTVSv5tAXlLAmURvBBtDnkripKCOM9O5HeS3FpjopOXpvE/T1V0R3m7DkOZ4W3kLM9Rfl6rdxDjYhC4gSHa8ljy1uHm3fEl0XvkLYJvS/ner7PIwv0b+Oce5U0Q9wkvqXriq9XLTyvbw6Q0LFlNRnRY0B8LnS8MSOlLBGir0t8d70Qn7/u/P2jCRB+nG00QrwkKJOPkpSwSEjkw5DIed/M5Sb1zyZCkadsVaGQgMAhcAYEL109gEWvgFOqZYOB5vpekyFmWmkm4/XI0MhAYBK6CwIVn2cQYZx81r/fg+88nyU7p0D/TrN8sNDAIDAAgMAAAIDAAACAwAAAgMACAwAAAgMAAAIDAAAACAwAAAgMAAAIDAAACAwAIXHHBpuIFo8NZdiFvcbvspCdrZGUfW1nkLmH3ErovuaBkHetMFtlbdx4+JdAoSJRzUlgaUgEmsdzKMpeoR6rwMPmI5Q6WvdA0kut/UQXpEjgpqQcNvDPLxSz7V1svLI+wXMryAppJDzSpVbMNeRkr1/LVW+FnC3nJ8S5i+RxVBg0chj4s18bUtlHlSqptfuR6xxnkbf0Zpe5mKpGBBtDAvUXgceSlQHVSlGdZtlzN28o6LA/FrLfDQTGY0GEm9D46Zl0rQjGS9PwddVJ9Sl6KF9lLd1PyEpZHuf4clpuIVrv98yQHtOzYsGGMa15XM7sTNIMJbYMkEW8rowEkI+PdLCeTl+q0NC+T5CEdyXIcyx/Jy9wYVp5sWzJgNWwnf6nAajkf9IIJHUTg0SzzyzQgSW26Vcz62E7H0nlLeW3qJFvdcFiZen6VZRrLcyoz1AG4NugFAtsILPO3T4U0KElYfkiV9SLa/YmSco9fTdvIowH1LBupTSZvm5WsWjOtFisHAIG74Sch5H1Fx7WJDL1ZfqPlXrWatg/ZB2mhpZ5ll4dtQB8QOC6BxYmyIoC8M9RTmoYJOWQ1bR8HBNT1j0EdELgSAk8NMedG4HMmjsmWupYw1F1QNasegdPeG2kseXv+2HA6IYZ5EBX3pxKiybYE7VWWmbO1Ge0wk4aMn/tSccs32TB0WY3rUHdHc4dPbTW4X0a/W0bvKfUtMye9MvWWNoGFvP0tx/9Esr9sfUHmlg9Uc9/oB7rL1/BlbCnbcIqnttlClCE6JHiizH32INntgGhH8uZq++jxvN5LtgN9krxpIP8+IzupFl2mz9ei57xjIaut0Z2s/oZBlnNkmk02U7s3Qj3JYpNJ+h6b6XsX2pFs0iax7M9pPfhDWvvo0EY2HV+p7eIjbQeldSkzEfsqMbL6/DJl+Kn+/asse2sdrqF1J+cs1W8gTrxnEmwbWX0e+W7j9bs163eQDldmV/6u93yohMz7kRdQtFS/mXzTG+pSnZeY0FltMDZzrh4jpL5redYttcHeyPIJlZ9HPTOk/KPJiw6LOicrxLxQG4rgJss5J1vu802qLHLtbf1mQZCO6wqKvtikQzvq3fT6vkpI/zmfkH2O3ub0FLLKVOSDSpBy93+Eouy2WF7bnkTeFq9R61HOPcVXxt9Lz2mUMfBY7Z1KX/DJOjVnT6aeASW3kRcIEuXDvRtgbUjQyd1UeUjodG2451v+dkyCBJ5BwauQvs4yq4p3uFC1z8yS41KmbQrrAktncD/LxxXc+2cVtgexLh6v4p3vU2vn96XtqlEIfHzAi51RpwQ+wWIpxPlg37eUOVHNxGrjuv/B8oDl+FEJEvj5gHq5hJKJTX9U38N/7HWyLzo5r+S8fJX3viJmW5B48CUJvPOLOozwH1vcKE6szSzHVur4qBGQiXFup2prPzbXMeXwhOpys5Tfd5iOZf3jt1+xnJ1Q+ftUcW2165OlQ1gcURvvrb6PJLixQyM7sWzzu3PU1Izjpd1CTfFcgg6JVtUGlax5ddThs0jHp4N1fDq3xGx+PAJ5P9YxU5s60cZQOssg8zp2/IDsSwX76Jjbv+Dj1AjkXanf81197i3VwVMrzFbTf5nW3cSQ+vupOpmeDilvS7V0miJ8/1naJjdm2cTnq6gtUjShH7SYFE/F1GyHaCV9qV68JGRFwPjxhAgm0XUs/0LeSippKAPJvqrq3jLl3K0eb/88uHQEX2H5YUSHWRwTuk29p1ExTus86L7SWV2s3uKBvutG6De7P+LzRzWhS0Uizc6y1P14dTiGmbRhjrqXQq6VdvgH8jK/rFmiZCaqmb4swjsvbpQxsG01zAMx+5dvUHrrhU+MQeBOy/lB2DekHMnldXCEMtbTaZOkCCyaddcY9f5YyD3voGjRcwdGcDpVQuAP1CoLw7+FXL9nwDVnUHi474QI7zxWvd8gsE8Dp0XgY2MQ+PQYz/yXEK0RNxb5toQInIsxpbJjyP2uj/n82+swJSkCd8R4j5sCyphiOVdmD94POH8WxYsYbC5jgSRK4Aylh/aAiopzzzTT4kSN2hEv4tSI54oJt3/AuOkI7cnjQMIiX67xqOq4gON/I/u8cxhkDvTIBJ/tXh2GRcEPyR4VtpPl2H46hi6FeKIPpXgRgx3aic6txcdK04k1P8A0lHm/LyKWsVQrr5PiZ9TIqfdyHbLPNS6IWM6dCXha74nR8EpxThnHS5KQDnP3ACfYuRWWKc48yTb6rQSe7+EY536oY969S47LuHlASRucFFDGf6sGjgvxH8jikRsamcAfWo6NUY/dyzE+/gTt1SohsLzfE9QzScASNZmi4O0Y99w94Pg1VdTjM2qWH1ADAo9TsY2J/1pFudeo07Bai++fMc//wHKsRb3ufgLbpnuqDXm8neUHOi5uSAK/FVB528YgcLs6QiqFaPyNLMdnRySw3H9RjLocGXCvGVXW5eM1IvCGZJ9zrdYCeE079PWrLCduB9AS0LH7lcEaZM+v9kKVZnCb1luqBE5zDPyimhKlOJhqh6PIHt74YsTrC46HKJBpINsa5NdjDBniaJI0EJQ77NUqy5X3f7NO26vM1Q8N+G7V4o20P1iaBJ4TQJR9A7RiGghyoDyRQh2ZALKvSOA9arWBVT5kTFctVlB9oinAEk3inRc0MoEFD1qOyfjjohpp3x0tx+fpmC5pdJA9WmzNBMru38uNfGACZaxVpwQWf8jSlJ53/UYnsEQc2cIVZYlWmtkiJVTykhDnQhrbhkgj+NRyfAuKlsM6DJvUqDF/EnB8uyrLlZmAek2y/1mAnyOJ/GFbNTqBZez2u4C/3UJeGFoakMR2m1qOy3TUb1O6p5i5NsedBAHsVqWJd0iNGvM7AeP1A6tsKzvXsQb+MsDHsHWVnc5wHS42NIEFVwWYKJKJ8jZKfic8cd0HBRxIQMa7Kb5rkLf2O1WUeWwtenKFBOnblhWOp+oCMs6h+sazlmMtVT73GQlYXnVBYBlzXhrwN+nZH03wRYW8vwj429wQszop/C/ZA1gkmOC0CsqTLBg/r3FjfjDg+C/J87THxfcoXhx2b0BCH20OvBOosl0zpcM9rxYPnqlRBUlES1Ac9N6qufas0ly5K4S8gskUfU63mvHUzQF/k2CGOFNoQ9SHMLzGjfnOgHoarX+LkwReMnn8J9U/ZgZ0XMIPSQsUJ6Pn1lpWbRyPNdxaRcZAcyg4yDuvJm4cc1E8vGep6RcW9H9xhLJOsFwn610nxqxSWQ8blAdbPNWSuaNPmTJ2pZ7pZ2q1mEHwMwpfkleuTsRr/WMqn0kj7mKGuJu432Ip4z2yzwzsEPKcMh0UZZePg8gLWFklViPZIGF6s6n85maST0iSzEn2wWFqug3WihfHggTcXx2hLCfEfE+LwIJvU/nEZxdroxEn13r6XtJIbqXoKWTSIrB48V+g8IR1t+i9ZEH7SNXQoqlkivBNSmc9cJoEJrXgwp73GVUY4qEe5ftu/0rRN5Nb3Oj7A2+hjqQoL9upPdoslfeoZ2bDJMibNIFJiVju+QqhovNivlfaBBZsROGL+guyiIrbv8bNXVVvBJbF/k9GeG6xsD6p8Ls1zHLCILyhmifKKp+s9u6bqmwQcWzxhWqzn/TiuEo84eVWzzSrBh4e4b1yNX7+f+oYtlwE1Rr6/GIplZtR6KjzsbDU8WFUPtRWOp11In63VPelzvRSRUmvLXmSzyF78EM1ENLsFuJMqhXatDH8JoGyxAE2pRfeQbzqslb2nSrLWa5Dopk1fv5KQlAlMutrlMzGA5ex/HlVJHABV5K3XPAXVH3c6ONqPorbv5JF8E0BY8Fq6khM8O+oqVvJulLJpChTY5IwflmAhRLlPTIUngsqDNPVYrqaKtv2ZZp+46up53RhS4DWbgqxyOKg1XKsJYKlINlTjtRv91EF7yxTlhJt+CPqueVKS6N6octhfdXID1K0BN7L1RkkmimJiJcgx1NSm4JJ1Jlkefwbld9Z4D19L3802bWW82ye0aB83EnU0QSdKSjnaRWiP6+N2D9jUJqsT5Z02lZABeW0ijsna0suKPP0Q2OUMVKJGGV3hlmqdUf7rn+m5Jy2JHlmKiRbWRhTVYCVTMWMIS9L41AqbmBVMHFkfPaWNvT2hB5Z7rmTOm5yOj7t0PHQ4oSrZ7xqtQ2omI95ifbcM9SCKJ2LFTLLFNtS1SB99dlK10sP1/do872H1J0syE8qBnwdfZbt1BM7WOtqvn4b6aRetWhVmVUYQsW9kUTTPWsZJ66vZS/3ad7CFFacuXx5xrFUjATsp/U8neJvRtaszzRRPdBrqmWzWL+bvPNL1DMUdbw6BJdpHXQw5x5NjGdpERgAgPQBAgMACAwAAAgMAAAIDAAgMAAAIDAAACAwAAAgMACAwAAAgMAAAIDAAAACAwAAAgMAAAIDAAACAwAIDAAACAwAAAgMAAAIDAAgMAAAIDAAACAwAIDAAACAwAAAgMAAAIDAAAACAwAAAgMAAAIDAAACAwAIDAAACAwAAAgMACAwAAAgMAAAIDAAACAwAIDAAACAwAAAgMAAAAKDwAAAAgMAUHv8vwADAE0iXm81mRWLAAAAAElFTkSuQmCC;" parent="2QsRzNsaBDCovpPSGi35-1" vertex="1">
          <mxGeometry x="514" y="313.5" width="44" height="40" as="geometry"/>
        </mxCell>
      </root>
    </mxGraphModel>
  </diagram>
</mxfile>
